<svg width="13" height="24" viewBox="0 0 13 24" fill="none" xmlns="http://www.w3.org/2000/svg">
<path fill-rule="evenodd" clip-rule="evenodd" d="M0.381786 23.618C0.260765 23.4973 0.164747 23.3538 0.0992336 23.1959C0.03372 23.038 0 22.8687 0 22.6978C0 22.5268 0.03372 22.3575 0.0992336 22.1996C0.164747 22.0417 0.260765 21.8983 0.381786 21.7775L9.8606 12.2995L0.381786 2.82154C0.137769 2.57748 0.000679016 2.24646 0.000679016 1.9013C0.000679016 1.55614 0.137769 1.22512 0.381786 0.981054C0.625805 0.73699 0.956764 0.599878 1.30186 0.599878C1.64695 0.599878 1.97791 0.73699 2.22193 0.981054L12.6182 11.3793C12.7392 11.5 12.8353 11.6435 12.9008 11.8014C12.9663 11.9593 13 12.1286 13 12.2995C13 12.4705 12.9663 12.6398 12.9008 12.7977C12.8353 12.9556 12.7392 13.099 12.6182 13.2198L2.22193 23.618C2.10121 23.7391 1.95781 23.8351 1.79993 23.9006C1.64205 23.9661 1.47279 23.9999 1.30186 23.9999C1.13092 23.9999 0.961668 23.9661 0.803787 23.9006C0.645906 23.8351 0.502502 23.7391 0.381786 23.618Z" fill="#003555"/>
</svg>
