<svg width="13" height="24" viewBox="0 0 13 24" fill="none" xmlns="http://www.w3.org/2000/svg">
<path fill-rule="evenodd" clip-rule="evenodd" d="M0.381786 23.6181C0.260765 23.4974 0.164747 23.354 0.0992336 23.1961C0.03372 23.0381 0 22.8689 0 22.6979C0 22.5269 0.03372 22.3576 0.0992336 22.1997C0.164747 22.0418 0.260765 21.8984 0.381786 21.7777L9.8606 12.2997L0.381786 2.82167C0.137769 2.5776 0.000679016 2.24658 0.000679016 1.90142C0.000679016 1.55626 0.137769 1.22524 0.381786 0.981176C0.625805 0.737112 0.956764 0.6 1.30186 0.6C1.64695 0.6 1.97791 0.737112 2.22193 0.981176L12.6182 11.3794C12.7392 11.5002 12.8353 11.6436 12.9008 11.8015C12.9663 11.9594 13 12.1287 13 12.2997C13 12.4706 12.9663 12.6399 12.9008 12.7978C12.8353 12.9557 12.7392 13.0992 12.6182 13.2199L2.22193 23.6181C2.10121 23.7392 1.95781 23.8352 1.79993 23.9007C1.64205 23.9663 1.47279 24 1.30186 24C1.13092 24 0.961668 23.9663 0.803787 23.9007C0.645906 23.8352 0.502502 23.7392 0.381786 23.6181Z" fill="#003555"/>
</svg>
