<svg width="20" height="17" viewBox="0 0 20 17" fill="none" xmlns="http://www.w3.org/2000/svg">
<path d="M16.8912 0.541994C17.2368 0.190513 17.6967 -0.00380052 18.1738 5.63355e-05C18.651 0.00391319 19.1081 0.205639 19.4487 0.562667C19.7893 0.919694 19.9867 1.4041 19.9994 1.91367C20.012 2.42323 19.8388 2.91811 19.5163 3.29386L9.72714 16.3718C9.55881 16.5654 9.35565 16.7209 9.1298 16.8288C8.90396 16.9366 8.66007 16.9948 8.41271 16.9997C8.16536 17.0046 7.91962 16.9561 7.69019 16.8572C7.46076 16.7584 7.25236 16.6111 7.07743 16.4242L0.585654 9.48949C0.404869 9.30954 0.259866 9.09253 0.159295 8.85142C0.0587241 8.6103 0.00464558 8.35002 0.000286364 8.0861C-0.00407285 7.82217 0.0413766 7.56001 0.133923 7.31526C0.226468 7.07051 0.364215 6.84817 0.538945 6.66152C0.713676 6.47487 0.921809 6.32772 1.15093 6.22886C1.38005 6.13 1.62547 6.08145 1.87253 6.08611C2.1196 6.09076 2.36326 6.14853 2.58897 6.25597C2.81469 6.3634 3.01783 6.5183 3.18629 6.71142L8.32377 12.1968L16.8445 0.599653C16.8599 0.579475 16.8763 0.560225 16.8936 0.541994H16.8912Z" fill="#006496"/>
</svg>
