<svg width="257" height="55" viewBox="0 0 257 55" fill="none" xmlns="http://www.w3.org/2000/svg">
<path fill-rule="evenodd" clip-rule="evenodd" d="M42.2875 41.4015L49.1737 54.0414H42.5597C39.2617 47.9365 35.9866 41.8755 32.6512 35.7537C38.5471 35.7537 44.4431 35.6998 50.3542 35.6682L58.8909 20.8745L50.1312 5.69519L9.71653 5.68641L12.3367 10.3656H47.4513L53.5176 20.8745L47.6462 31.047H24.7127L37.1864 54.0414H30.6759L15.0336 25.3302C24.8116 25.3302 34.5896 25.3407 44.3746 25.3407L46.9533 20.8745L44.1791 16.0719H9.00075L0 0L53.4122 0.0122905L65.4511 20.8745L53.6393 41.3435L42.2875 41.4015Z" fill="white"/>
<path fill-rule="evenodd" clip-rule="evenodd" d="M6.55907 11.7223L8.99376 16.117L12.335 10.4107L9.71831 5.69055L6.55907 11.7223Z" fill="white"/>
<path fill-rule="evenodd" clip-rule="evenodd" d="M21.5014 37.2029L30.6759 54.0415H37.1858L24.7139 31.0553L21.5014 37.2029Z" fill="white"/>
<path fill-rule="evenodd" clip-rule="evenodd" d="M42.2875 41.4015L38.9632 47.3881L42.5597 54.0414H49.1737L42.2875 41.4015Z" fill="white"/>
<path fill-rule="evenodd" clip-rule="evenodd" d="M44.3875 25.3149L15.0336 25.3301L21.5014 37.2027L24.7145 31.0551L40.9227 31.0469L44.3875 25.3149Z" fill="white"/>
<path fill-rule="evenodd" clip-rule="evenodd" d="M32.6512 35.7538L39.0024 47.4596L42.2875 41.4016L46.7191 41.3723L50.377 35.6473L32.6512 35.7538Z" fill="white"/>
<path fill-rule="evenodd" clip-rule="evenodd" d="M47.4507 10.3658H12.3362L8.99373 16.1172L44.1791 16.0721L47.4507 10.3658Z" fill="white"/>
<path d="M92.3945 33.1694C92.3945 33.2365 92.3777 33.2932 92.3442 33.3393C92.3106 33.3854 92.2519 33.4253 92.168 33.4589C92.0841 33.4924 91.9729 33.5176 91.8345 33.5344C91.6961 33.5511 91.522 33.5595 91.3123 33.5595C91.111 33.5595 90.939 33.5511 90.7964 33.5344C90.6538 33.5176 90.5426 33.4924 90.4629 33.4589C90.3832 33.4253 90.3245 33.3854 90.2868 33.3393C90.249 33.2932 90.2301 33.2365 90.2301 33.1694V19.0758H82.8688V33.1694C82.8688 33.2365 82.8499 33.2932 82.8121 33.3393C82.7744 33.3854 82.7156 33.4253 82.636 33.4589C82.5563 33.4924 82.4472 33.5176 82.3088 33.5344C82.1704 33.5511 81.9963 33.5595 81.7866 33.5595C81.5768 33.5595 81.4028 33.5511 81.2643 33.5344C81.1259 33.5176 81.0148 33.4924 80.9309 33.4589C80.847 33.4253 80.7883 33.3854 80.7547 33.3393C80.7211 33.2932 80.7044 33.2365 80.7044 33.1694V18.0817C80.7044 17.7881 80.7778 17.5679 80.9246 17.4211C81.0714 17.2743 81.258 17.2009 81.4845 17.2009H91.6395C91.8744 17.2009 92.0589 17.2743 92.1932 17.4211C92.3274 17.5679 92.3945 17.7881 92.3945 18.0817V33.1694Z" fill="white"/>
<path d="M106.903 27.3307C106.903 28.3206 106.796 29.2098 106.583 29.9984C106.369 30.787 106.054 31.456 105.639 32.0055C105.224 32.555 104.71 32.9786 104.097 33.2764C103.485 33.5743 102.784 33.7232 101.996 33.7232C101.66 33.7232 101.35 33.6896 101.065 33.6225C100.779 33.5554 100.5 33.4505 100.228 33.3079C99.9552 33.1653 99.6846 32.9849 99.4162 32.7668C99.1477 32.5487 98.8625 32.2929 98.5605 31.9992V37.6618C98.5605 37.729 98.5437 37.7877 98.5101 37.838C98.4766 37.8883 98.4221 37.9303 98.3466 37.9638C98.2711 37.9974 98.1662 38.0226 98.032 38.0394C97.8977 38.0561 97.7258 38.0645 97.516 38.0645C97.3147 38.0645 97.1469 38.0561 97.0127 38.0394C96.8785 38.0226 96.7715 37.9974 96.6918 37.9638C96.6121 37.9303 96.5576 37.8883 96.5282 37.838C96.4989 37.7877 96.4842 37.729 96.4842 37.6618V21.8443C96.4842 21.7688 96.4968 21.708 96.5219 21.6619C96.5471 21.6157 96.5974 21.5759 96.6729 21.5423C96.7484 21.5087 96.8449 21.4857 96.9624 21.4731C97.0798 21.4605 97.2224 21.4542 97.3902 21.4542C97.5664 21.4542 97.7111 21.4605 97.8243 21.4731C97.9376 21.4857 98.032 21.5087 98.1075 21.5423C98.183 21.5759 98.2354 21.6157 98.2648 21.6619C98.2941 21.708 98.3088 21.7688 98.3088 21.8443V23.3669C98.6527 23.0146 98.9841 22.7084 99.3029 22.4483C99.6217 22.1883 99.9425 21.9722 100.266 21.8003C100.589 21.6283 100.92 21.4983 101.26 21.4102C101.599 21.3221 101.958 21.278 102.336 21.278C103.158 21.278 103.858 21.4374 104.437 21.7562C105.016 22.075 105.488 22.5112 105.853 23.0649C106.218 23.6186 106.484 24.2624 106.652 24.9965C106.819 25.7305 106.903 26.5086 106.903 27.3307ZM104.714 27.5698C104.714 26.9909 104.67 26.4309 104.582 25.8899C104.494 25.3488 104.343 24.8685 104.129 24.449C103.915 24.0296 103.627 23.694 103.267 23.4424C102.906 23.1907 102.457 23.0648 101.92 23.0648C101.652 23.0648 101.388 23.1047 101.128 23.1844C100.867 23.2641 100.603 23.3899 100.335 23.5619C100.066 23.7339 99.7853 23.9604 99.4917 24.2414C99.1981 24.5224 98.8877 24.8685 98.5605 25.2796V29.7845C99.131 30.4807 99.672 31.0134 100.184 31.3826C100.696 31.7517 101.232 31.9362 101.794 31.9362C102.315 31.9362 102.761 31.8104 103.135 31.5587C103.508 31.3071 103.81 30.9715 104.041 30.552C104.271 30.1326 104.441 29.6628 104.55 29.1427C104.659 28.6226 104.714 28.0983 104.714 27.5698Z" fill="white"/>
<path d="M118.556 33.1821C118.556 33.2827 118.522 33.3583 118.455 33.4086C118.388 33.4589 118.296 33.4967 118.178 33.5219C118.061 33.547 117.889 33.5596 117.662 33.5596C117.444 33.5596 117.27 33.547 117.14 33.5219C117.01 33.4967 116.916 33.4589 116.857 33.4086C116.798 33.3583 116.769 33.2828 116.769 33.1821V32.0496C116.274 32.5781 115.722 32.9892 115.114 33.2828C114.506 33.5764 113.862 33.7232 113.182 33.7232C112.587 33.7232 112.048 33.6456 111.566 33.4904C111.083 33.3352 110.672 33.1108 110.332 32.8172C109.993 32.5236 109.728 32.1628 109.54 31.735C109.351 31.3072 109.256 30.8206 109.256 30.2753C109.256 29.6377 109.386 29.0841 109.647 28.6143C109.907 28.1445 110.28 27.7544 110.766 27.444C111.253 27.1336 111.849 26.9008 112.553 26.7456C113.258 26.5904 114.051 26.5128 114.932 26.5128H116.492V25.632C116.492 25.1957 116.446 24.8098 116.354 24.4743C116.261 24.1387 116.112 23.8598 115.907 23.6375C115.701 23.4151 115.435 23.2474 115.108 23.1341C114.781 23.0209 114.378 22.9642 113.9 22.9642C113.388 22.9642 112.929 23.0251 112.522 23.1467C112.115 23.2683 111.758 23.4026 111.452 23.5494C111.146 23.6962 110.89 23.8304 110.685 23.9521C110.479 24.0737 110.326 24.1345 110.225 24.1345C110.158 24.1345 110.1 24.1178 110.049 24.0842C109.999 24.0506 109.955 24.0003 109.917 23.9332C109.879 23.8661 109.852 23.7801 109.835 23.6752C109.819 23.5704 109.81 23.455 109.81 23.3292C109.81 23.1195 109.825 22.9538 109.854 22.8321C109.884 22.7105 109.955 22.5951 110.068 22.4861C110.181 22.377 110.376 22.2491 110.653 22.1023C110.93 21.9555 111.249 21.8212 111.61 21.6996C111.97 21.5779 112.365 21.4773 112.792 21.3976C113.22 21.3179 113.652 21.278 114.089 21.278C114.902 21.278 115.594 21.3703 116.165 21.5549C116.735 21.7394 117.197 22.01 117.549 22.3665C117.901 22.723 118.157 23.1656 118.317 23.6941C118.476 24.2226 118.556 24.8392 118.556 25.5439V33.1821ZM116.492 28.0103L114.718 28.0102C114.147 28.0102 113.652 28.0585 113.233 28.155C112.813 28.2514 112.465 28.394 112.188 28.5828C111.911 28.7715 111.708 28.9981 111.578 29.2623C111.448 29.5266 111.383 29.8307 111.383 30.1746C111.383 30.7619 111.57 31.2295 111.943 31.5777C112.316 31.9258 112.838 32.0999 113.51 32.0999C114.055 32.0999 114.56 31.9615 115.026 31.6847C115.492 31.4078 115.98 30.9842 116.492 30.4137V28.0103Z" fill="white"/>
<path d="M131.668 29.9103C131.668 30.5059 131.555 31.0365 131.328 31.5021C131.102 31.9677 130.766 32.3578 130.321 32.6724C129.877 32.987 129.323 33.2261 128.66 33.3896C127.998 33.5532 127.226 33.635 126.345 33.635C126.068 33.635 125.8 33.6329 125.54 33.6287C125.28 33.6245 125.028 33.6161 124.785 33.6036C124.541 33.591 124.3 33.5763 124.061 33.5595C123.822 33.5427 123.585 33.5218 123.35 33.4966C123.015 33.4547 122.767 33.3435 122.608 33.1632C122.448 32.9828 122.369 32.7164 122.369 32.3641V22.6118C122.369 22.2679 122.446 22.0036 122.601 21.8191C122.757 21.6345 122.994 21.5255 123.312 21.4919C123.53 21.4667 123.763 21.4457 124.011 21.429C124.258 21.4122 124.512 21.3975 124.772 21.3849C125.032 21.3723 125.301 21.3619 125.577 21.3535C125.854 21.3451 126.135 21.3409 126.42 21.3409C127.234 21.3409 127.939 21.408 128.534 21.5422C129.13 21.6765 129.625 21.8736 130.019 22.1337C130.414 22.3937 130.705 22.7125 130.894 23.09C131.083 23.4675 131.177 23.8996 131.177 24.3861C131.177 25.0237 131.007 25.569 130.667 26.022C130.328 26.475 129.826 26.798 129.164 26.9909C129.994 27.1671 130.619 27.5068 131.039 28.0102C131.458 28.5135 131.668 29.1469 131.668 29.9103ZM129.164 24.6504C129.164 24.3735 129.113 24.126 129.013 23.9079C128.912 23.6898 128.746 23.5053 128.516 23.3543C128.285 23.2033 127.987 23.09 127.622 23.0145C127.257 22.939 126.815 22.9012 126.295 22.9012C125.9 22.9012 125.54 22.9117 125.212 22.9327C124.885 22.9537 124.608 22.9768 124.382 23.0019V26.5253H126.496C127.36 26.5253 128.021 26.3638 128.478 26.0408C128.935 25.7179 129.164 25.2544 129.164 24.6504ZM129.541 29.948C129.541 29.6125 129.482 29.3168 129.365 29.0609C129.248 28.805 129.061 28.5932 128.805 28.4254C128.549 28.2577 128.222 28.1318 127.824 28.0479C127.425 27.964 126.953 27.9221 126.408 27.9221H124.382V31.9363C124.541 31.9614 124.707 31.9803 124.879 31.9929L125.408 32.0306C125.588 32.0432 125.768 32.0537 125.949 32.0621C126.129 32.0705 126.295 32.0747 126.446 32.0747C126.991 32.0747 127.457 32.0264 127.842 31.93C128.228 31.8335 128.549 31.693 128.805 31.5084C129.061 31.3238 129.248 31.0994 129.365 30.8352C129.482 30.5709 129.541 30.2752 129.541 29.948Z" fill="white"/>
<path d="M145.245 27.3811C145.245 28.3038 145.124 29.1532 144.881 29.9292C144.637 30.7052 144.274 31.3743 143.792 31.9363C143.31 32.4984 142.706 32.9367 141.98 33.2513C141.254 33.5659 140.413 33.7232 139.457 33.7232C138.526 33.7232 137.714 33.5848 137.022 33.3079C136.33 33.0311 135.753 32.6284 135.292 32.0999C134.83 31.5714 134.487 30.9296 134.26 30.1746C134.034 29.4196 133.92 28.5639 133.92 27.6076C133.92 26.6848 134.04 25.8354 134.279 25.0594C134.518 24.2834 134.879 23.6144 135.361 23.0523C135.843 22.4903 136.445 22.054 137.167 21.7436C137.888 21.4332 138.731 21.278 139.696 21.278C140.627 21.278 141.439 21.4164 142.131 21.6933C142.823 21.9701 143.4 22.3728 143.861 22.9013C144.323 23.4298 144.669 24.0716 144.899 24.8266C145.13 25.5816 145.245 26.4331 145.245 27.3811ZM143.056 27.5195C143.056 26.9071 142.999 26.3283 142.886 25.783C142.773 25.2377 142.586 24.7595 142.326 24.3484C142.066 23.9374 141.714 23.6123 141.269 23.3732C140.824 23.1341 140.271 23.0146 139.608 23.0146C138.996 23.0146 138.469 23.1236 138.029 23.3418C137.588 23.5599 137.226 23.8682 136.94 24.2666C136.655 24.6651 136.443 25.137 136.305 25.6823C136.166 26.2276 136.097 26.8232 136.097 27.4692C136.097 28.0899 136.154 28.673 136.267 29.2183C136.38 29.7635 136.569 30.2396 136.833 30.6465C137.098 31.0533 137.452 31.3763 137.897 31.6154C138.341 31.8545 138.895 31.974 139.558 31.974C140.162 31.974 140.686 31.865 141.131 31.6469C141.575 31.4288 141.94 31.1226 142.225 30.7283C142.511 30.334 142.72 29.8642 142.855 29.3189C142.989 28.7737 143.056 28.1738 143.056 27.5195Z" fill="white"/>
<path d="M157.602 29.9103C157.602 30.5059 157.489 31.0365 157.263 31.5021C157.036 31.9677 156.701 32.3578 156.256 32.6724C155.811 32.987 155.258 33.2261 154.595 33.3896C153.932 33.5532 153.161 33.635 152.28 33.635C152.003 33.635 151.734 33.6329 151.474 33.6287C151.214 33.6245 150.963 33.6161 150.719 33.6036C150.476 33.591 150.235 33.5763 149.996 33.5595C149.757 33.5427 149.52 33.5218 149.285 33.4966C148.949 33.4547 148.702 33.3435 148.542 33.1632C148.383 32.9828 148.303 32.7164 148.303 32.3641V22.6118C148.303 22.2679 148.381 22.0036 148.536 21.8191C148.691 21.6345 148.928 21.5255 149.247 21.4919C149.465 21.4667 149.698 21.4457 149.945 21.429C150.193 21.4122 150.447 21.3975 150.707 21.3849C150.967 21.3723 151.235 21.3619 151.512 21.3535C151.789 21.3451 152.07 21.3409 152.355 21.3409C153.169 21.3409 153.874 21.408 154.469 21.5422C155.065 21.6765 155.56 21.8736 155.954 22.1337C156.348 22.3937 156.64 22.7125 156.829 23.09C157.017 23.4675 157.112 23.8996 157.112 24.3861C157.112 25.0237 156.942 25.569 156.602 26.022C156.262 26.475 155.761 26.798 155.098 26.9909C155.929 27.1671 156.554 27.5068 156.973 28.0102C157.393 28.5135 157.602 29.1469 157.602 29.9103ZM155.098 24.6504C155.098 24.3735 155.048 24.126 154.947 23.9079C154.847 23.6898 154.681 23.5053 154.45 23.3543C154.22 23.2033 153.922 23.09 153.557 23.0145C153.192 22.939 152.749 22.9012 152.229 22.9012C151.835 22.9012 151.474 22.9117 151.147 22.9327C150.82 22.9537 150.543 22.9768 150.317 23.0019V26.5253H152.431C153.295 26.5253 153.955 26.3638 154.413 26.0408C154.87 25.7179 155.098 25.2544 155.098 24.6504ZM155.476 29.948C155.476 29.6125 155.417 29.3168 155.3 29.0609C155.182 28.805 154.996 28.5932 154.74 28.4254C154.484 28.2577 154.157 28.1318 153.758 28.0479C153.36 27.964 152.888 27.9221 152.343 27.9221H150.317V31.9363C150.476 31.9614 150.642 31.9803 150.814 31.9929L151.342 32.0306C151.523 32.0432 151.703 32.0537 151.883 32.0621C152.064 32.0705 152.229 32.0747 152.38 32.0747C152.926 32.0747 153.391 32.0264 153.777 31.93C154.163 31.8335 154.484 31.693 154.74 31.5084C154.996 31.3238 155.182 31.0994 155.3 30.8352C155.417 30.5709 155.476 30.2752 155.476 29.948Z" fill="white"/>
<path d="M171.18 27.3811C171.18 28.3038 171.058 29.1532 170.815 29.9292C170.572 30.7052 170.209 31.3743 169.727 31.9363C169.244 32.4984 168.64 32.9367 167.915 33.2513C167.189 33.5659 166.348 33.7232 165.392 33.7232C164.461 33.7232 163.649 33.5848 162.957 33.3079C162.265 33.0311 161.688 32.6284 161.227 32.0999C160.765 31.5714 160.421 30.9296 160.195 30.1746C159.968 29.4196 159.855 28.5639 159.855 27.6076C159.855 26.6848 159.974 25.8354 160.214 25.0594C160.453 24.2834 160.813 23.6144 161.296 23.0523C161.778 22.4903 162.38 22.054 163.101 21.7436C163.823 21.4332 164.666 21.278 165.631 21.278C166.562 21.278 167.374 21.4164 168.066 21.6933C168.758 21.9701 169.335 22.3728 169.796 22.9013C170.257 23.4298 170.603 24.0716 170.834 24.8266C171.065 25.5816 171.18 26.4331 171.18 27.3811ZM168.991 27.5195C168.991 26.9071 168.934 26.3283 168.821 25.783C168.707 25.2377 168.521 24.7595 168.261 24.3484C168.001 23.9374 167.648 23.6123 167.204 23.3732C166.759 23.1341 166.205 23.0146 165.543 23.0146C164.93 23.0146 164.404 23.1236 163.963 23.3418C163.523 23.5599 163.16 23.8682 162.875 24.2666C162.59 24.6651 162.378 25.137 162.24 25.6823C162.101 26.2276 162.032 26.8232 162.032 27.4692C162.032 28.0899 162.089 28.673 162.202 29.2183C162.315 29.7635 162.504 30.2396 162.768 30.6465C163.032 31.0533 163.387 31.3763 163.831 31.6154C164.276 31.8545 164.83 31.974 165.492 31.974C166.096 31.974 166.621 31.865 167.065 31.6469C167.51 31.4288 167.875 31.1226 168.16 30.7283C168.445 30.334 168.655 29.8642 168.789 29.3189C168.923 28.7737 168.991 28.1738 168.991 27.5195Z" fill="white"/>
<path d="M184.317 33.182C184.317 33.2408 184.301 33.2953 184.267 33.3456C184.234 33.3959 184.179 33.4358 184.104 33.4651C184.028 33.4945 183.923 33.5176 183.789 33.5343C183.655 33.5511 183.487 33.5595 183.286 33.5595C183.084 33.5595 182.916 33.5511 182.782 33.5343C182.648 33.5176 182.539 33.4945 182.455 33.4651C182.371 33.4358 182.312 33.3959 182.279 33.3456C182.245 33.2953 182.229 33.2407 182.229 33.182V26.6637C182.229 26.3365 182.237 26.0031 182.254 25.6633C182.27 25.3236 182.291 24.9901 182.317 24.6629C182.124 24.9985 181.912 25.3278 181.681 25.6508L180.983 26.6134L176.176 33.182L176.019 33.3582C175.972 33.4085 175.914 33.4484 175.842 33.4777C175.771 33.5071 175.681 33.5281 175.572 33.5406C175.463 33.5532 175.329 33.5595 175.169 33.5595C174.985 33.5595 174.834 33.5511 174.716 33.5344C174.599 33.5176 174.504 33.4945 174.433 33.4652C174.362 33.4358 174.311 33.3959 174.282 33.3456C174.253 33.2953 174.238 33.2408 174.238 33.182V21.8317C174.238 21.7729 174.253 21.7184 174.282 21.6681C174.311 21.6177 174.366 21.5758 174.446 21.5422C174.525 21.5087 174.632 21.4856 174.766 21.473C174.901 21.4604 175.064 21.4542 175.257 21.4542C175.66 21.4542 175.937 21.4856 176.088 21.5485C176.239 21.6114 176.314 21.7058 176.314 21.8317V28.3877C176.314 28.7149 176.306 29.0399 176.289 29.3629C176.272 29.6859 176.251 30.0068 176.226 30.3256L176.811 29.3881C177.008 29.0819 177.22 28.782 177.447 28.4884L182.317 21.8317C182.367 21.7646 182.419 21.7058 182.474 21.6555C182.528 21.6052 182.596 21.5653 182.675 21.536C182.755 21.5066 182.849 21.4856 182.958 21.473C183.067 21.4605 183.21 21.4542 183.386 21.4542C183.562 21.4542 183.711 21.4605 183.833 21.473C183.955 21.4856 184.051 21.5087 184.122 21.5423C184.194 21.5758 184.244 21.6178 184.273 21.6681C184.303 21.7184 184.317 21.7771 184.317 21.8443V33.182ZM183.21 16.4962C183.21 16.9744 183.139 17.4233 182.996 17.8427C182.854 18.2622 182.627 18.6292 182.317 18.9438C182.006 19.2584 181.608 19.5059 181.121 19.6862C180.635 19.8666 180.043 19.9568 179.347 19.9568C178.709 19.9568 178.149 19.8771 177.667 19.7177C177.185 19.5583 176.782 19.3297 176.459 19.0319C176.136 18.734 175.893 18.3712 175.729 17.9434C175.566 17.5155 175.484 17.0332 175.484 16.4963C175.484 16.4124 175.499 16.3411 175.528 16.2823C175.557 16.2236 175.612 16.1775 175.691 16.1439C175.771 16.1103 175.876 16.0852 176.006 16.0684C176.136 16.0516 176.293 16.0432 176.478 16.0432C176.679 16.0432 176.839 16.0537 176.956 16.0747C177.074 16.0957 177.164 16.1271 177.227 16.1691C177.29 16.211 177.331 16.2655 177.352 16.3326C177.373 16.3998 177.384 16.4794 177.384 16.5717C177.384 16.8402 177.426 17.0876 177.51 17.3142C177.594 17.5407 177.722 17.7378 177.894 17.9056C178.066 18.0734 178.273 18.2034 178.516 18.2957C178.76 18.3879 179.041 18.4341 179.36 18.4341C179.67 18.4341 179.945 18.3879 180.184 18.2957C180.423 18.2034 180.626 18.0734 180.794 17.9056C180.962 17.7378 181.088 17.5365 181.172 17.3016C181.255 17.0667 181.297 16.815 181.297 16.5466C181.297 16.4627 181.308 16.3893 181.329 16.3263C181.35 16.2634 181.392 16.211 181.455 16.169C181.518 16.1271 181.606 16.0956 181.719 16.0747C181.832 16.0537 181.985 16.0432 182.178 16.0432C182.38 16.0432 182.545 16.0516 182.675 16.0684C182.805 16.0852 182.91 16.1103 182.99 16.1439C183.07 16.1774 183.126 16.2236 183.16 16.2823C183.193 16.341 183.21 16.4124 183.21 16.4962Z" fill="white"/>
<path d="M202.136 31.4455C202.136 31.5881 202.131 31.7119 202.123 31.8168C202.115 31.9217 202.1 32.0098 202.079 32.0811C202.058 32.1524 202.033 32.2153 202.004 32.2698C201.974 32.3243 201.907 32.404 201.802 32.5089C201.697 32.6137 201.519 32.7438 201.267 32.899C201.016 33.0542 200.733 33.1926 200.418 33.3142C200.103 33.4359 199.762 33.5344 199.392 33.6099C199.023 33.6854 198.642 33.7232 198.247 33.7232C197.434 33.7232 196.712 33.589 196.083 33.3205C195.454 33.0521 194.927 32.6599 194.504 32.144C194.08 31.628 193.757 30.9947 193.535 30.2438C193.312 29.493 193.201 28.6269 193.201 27.6453C193.201 26.5296 193.338 25.5711 193.61 24.77C193.883 23.9688 194.256 23.3124 194.73 22.8006C195.204 22.2889 195.762 21.9093 196.404 21.6618C197.046 21.4143 197.74 21.2906 198.486 21.2906C198.847 21.2906 199.197 21.3242 199.537 21.3913C199.877 21.4584 200.189 21.5465 200.475 21.6555C200.76 21.7646 201.014 21.8904 201.236 22.033C201.458 22.1756 201.62 22.2973 201.72 22.398C201.821 22.4986 201.89 22.5783 201.928 22.637C201.966 22.6958 201.997 22.765 202.022 22.8447C202.048 22.9244 202.064 23.0145 202.073 23.1152C202.081 23.2159 202.085 23.3417 202.085 23.4927C202.085 23.8199 202.048 24.0485 201.972 24.1785C201.897 24.3086 201.804 24.3736 201.695 24.3736C201.569 24.3736 201.425 24.3044 201.261 24.1659C201.098 24.0275 200.89 23.8744 200.638 23.7066C200.387 23.5389 200.082 23.3858 199.726 23.2473C199.369 23.1089 198.948 23.0397 198.461 23.0397C197.463 23.0397 196.698 23.4235 196.165 24.1911C195.632 24.9587 195.366 26.0724 195.366 27.532C195.366 28.2619 195.435 28.9015 195.573 29.451C195.712 30.0005 195.915 30.4598 196.184 30.8289C196.452 31.198 196.781 31.4728 197.172 31.6531C197.562 31.8335 198.008 31.9237 198.512 31.9237C198.99 31.9237 199.409 31.8482 199.77 31.6972C200.131 31.5462 200.443 31.3805 200.707 31.2001C200.972 31.0198 201.194 30.8562 201.374 30.7094C201.555 30.5626 201.695 30.4892 201.796 30.4892C201.855 30.4892 201.905 30.5059 201.947 30.5395C201.989 30.5731 202.025 30.6297 202.054 30.7094C202.083 30.7891 202.104 30.8897 202.117 31.0114C202.129 31.133 202.136 31.2777 202.136 31.4455Z" fill="white"/>
<path d="M212.819 22.4608C212.819 22.6286 212.811 22.7712 212.794 22.8887C212.777 23.0061 212.75 23.1026 212.712 23.1781C212.674 23.2536 212.63 23.3102 212.58 23.348C212.53 23.3857 212.467 23.4046 212.391 23.4046H208.994V33.1694C208.994 33.2365 208.977 33.2932 208.943 33.3393C208.91 33.3854 208.855 33.4253 208.78 33.4589C208.704 33.4924 208.599 33.5176 208.465 33.5344C208.331 33.5511 208.159 33.5595 207.949 33.5595C207.748 33.5595 207.58 33.5511 207.446 33.5344C207.312 33.5176 207.205 33.4924 207.125 33.4589C207.045 33.4253 206.991 33.3854 206.961 33.3393C206.932 33.2932 206.917 33.2365 206.917 33.1694V23.4046H203.52C203.453 23.4046 203.392 23.3857 203.337 23.348C203.283 23.3102 203.239 23.2536 203.205 23.1781C203.172 23.1026 203.144 23.004 203.123 22.8824C203.103 22.7607 203.092 22.616 203.092 22.4482C203.092 22.2972 203.103 22.163 203.123 22.0456C203.144 21.9281 203.174 21.8295 203.212 21.7499C203.249 21.6702 203.293 21.6114 203.344 21.5737C203.394 21.5359 203.453 21.5171 203.52 21.5171H212.391C212.458 21.5171 212.519 21.5359 212.574 21.5737C212.628 21.6114 212.672 21.6702 212.706 21.7499C212.739 21.8295 212.767 21.9302 212.788 22.0519C212.809 22.1735 212.819 22.3098 212.819 22.4608Z" fill="white"/>
<path d="M223.402 33.1821C223.402 33.2827 223.368 33.3583 223.301 33.4086C223.234 33.4589 223.142 33.4967 223.024 33.5219C222.907 33.547 222.735 33.5596 222.508 33.5596C222.29 33.5596 222.116 33.547 221.986 33.5219C221.856 33.4967 221.762 33.4589 221.703 33.4086C221.644 33.3583 221.615 33.2828 221.615 33.1821V32.0496C221.12 32.5781 220.568 32.9892 219.96 33.2828C219.352 33.5764 218.708 33.7232 218.029 33.7232C217.433 33.7232 216.894 33.6456 216.412 33.4904C215.929 33.3352 215.518 33.1108 215.178 32.8172C214.839 32.5236 214.574 32.1628 214.386 31.735C214.197 31.3072 214.103 30.8206 214.103 30.2753C214.103 29.6377 214.233 29.0841 214.493 28.6143C214.753 28.1445 215.126 27.7544 215.613 27.444C216.099 27.1336 216.695 26.9008 217.4 26.7456C218.104 26.5904 218.897 26.5128 219.778 26.5128H221.338V25.632C221.338 25.1957 221.292 24.8098 221.2 24.4743C221.107 24.1387 220.959 23.8598 220.753 23.6375C220.548 23.4151 220.281 23.2474 219.954 23.1341C219.627 23.0209 219.224 22.9642 218.746 22.9642C218.234 22.9642 217.775 23.0251 217.368 23.1467C216.961 23.2683 216.605 23.4026 216.298 23.5494C215.992 23.6962 215.736 23.8304 215.531 23.9521C215.325 24.0737 215.172 24.1345 215.072 24.1345C215.004 24.1345 214.946 24.1178 214.895 24.0842C214.845 24.0506 214.801 24.0003 214.763 23.9332C214.726 23.8661 214.698 23.7801 214.681 23.6752C214.665 23.5704 214.656 23.455 214.656 23.3292C214.656 23.1195 214.671 22.9538 214.7 22.8321C214.73 22.7105 214.801 22.5951 214.914 22.4861C215.028 22.377 215.223 22.2491 215.499 22.1023C215.776 21.9555 216.095 21.8212 216.456 21.6996C216.817 21.5779 217.211 21.4773 217.639 21.3976C218.066 21.3179 218.499 21.278 218.935 21.278C219.748 21.278 220.441 21.3703 221.011 21.5549C221.581 21.7394 222.043 22.01 222.395 22.3665C222.748 22.723 223.003 23.1656 223.163 23.6941C223.322 24.2226 223.402 24.8392 223.402 25.5439V33.1821ZM221.338 28.0103L219.564 28.0102C218.993 28.0102 218.498 28.0585 218.079 28.155C217.66 28.2514 217.311 28.394 217.035 28.5828C216.758 28.7715 216.554 28.9981 216.424 29.2623C216.294 29.5266 216.229 29.8307 216.229 30.1746C216.229 30.7619 216.416 31.2295 216.789 31.5777C217.162 31.9258 217.685 32.0999 218.356 32.0999C218.901 32.0999 219.407 31.9615 219.872 31.6847C220.338 31.4078 220.826 30.9842 221.338 30.4137V28.0103Z" fill="white"/>
<path d="M235.142 22.4608C235.142 22.6286 235.134 22.7712 235.117 22.8887C235.1 23.0061 235.073 23.1026 235.035 23.1781C234.998 23.2536 234.954 23.3102 234.903 23.348C234.853 23.3857 234.79 23.4046 234.715 23.4046H231.317V33.1694C231.317 33.2365 231.3 33.2932 231.267 33.3393C231.233 33.3854 231.179 33.4253 231.103 33.4589C231.028 33.4924 230.923 33.5176 230.788 33.5344C230.654 33.5511 230.482 33.5595 230.272 33.5595C230.071 33.5595 229.903 33.5511 229.769 33.5344C229.635 33.5176 229.528 33.4924 229.448 33.4589C229.369 33.4253 229.314 33.3854 229.285 33.3393C229.255 33.2932 229.241 33.2365 229.241 33.1694V23.4046H225.843C225.776 23.4046 225.715 23.3857 225.661 23.348C225.606 23.3102 225.562 23.2536 225.529 23.1781C225.495 23.1026 225.468 23.004 225.447 22.8824C225.426 22.7607 225.415 22.616 225.415 22.4482C225.415 22.2972 225.426 22.163 225.447 22.0456C225.468 21.9281 225.497 21.8295 225.535 21.7499C225.573 21.6702 225.617 21.6114 225.667 21.5737C225.717 21.5359 225.776 21.5171 225.843 21.5171H234.715C234.782 21.5171 234.842 21.5359 234.897 21.5737C234.951 21.6114 234.996 21.6702 235.029 21.7499C235.063 21.8295 235.09 21.9302 235.111 22.0519C235.132 22.1735 235.142 22.3098 235.142 22.4608Z" fill="white"/>
<path d="M242.353 33.4841L240.843 37.6492C240.792 37.7835 240.664 37.8862 240.459 37.9576C240.253 38.0289 239.941 38.0645 239.521 38.0645C239.303 38.0645 239.127 38.054 238.993 38.0331C238.859 38.0121 238.756 37.9764 238.685 37.9261C238.613 37.8758 238.573 37.8087 238.565 37.7248C238.557 37.6409 238.578 37.5402 238.628 37.4228L240.188 33.4841C240.113 33.4505 240.042 33.396 239.974 33.3205C239.907 33.245 239.861 33.1653 239.836 33.0814L235.797 22.2596C235.73 22.0834 235.696 21.945 235.696 21.8443C235.696 21.7436 235.73 21.664 235.797 21.6052C235.864 21.5465 235.973 21.5066 236.124 21.4857C236.275 21.4647 236.476 21.4542 236.728 21.4542C236.98 21.4542 237.177 21.4605 237.319 21.4731C237.462 21.4857 237.575 21.5087 237.659 21.5423C237.743 21.5759 237.804 21.6241 237.842 21.687C237.879 21.7499 237.919 21.8359 237.961 21.945L241.195 31.0303H241.233L244.354 21.8946C244.404 21.7352 244.465 21.6325 244.536 21.5863C244.607 21.5402 244.714 21.5066 244.857 21.4856C244.999 21.4647 245.205 21.4542 245.473 21.4542C245.708 21.4542 245.901 21.4647 246.052 21.4856C246.203 21.5066 246.314 21.5465 246.386 21.6052C246.457 21.6639 246.493 21.7436 246.493 21.8443C246.493 21.945 246.468 22.0708 246.417 22.2218L242.353 33.4841Z" fill="white"/>
<path d="M257 31.4455C257 31.5881 256.996 31.7119 256.987 31.8168C256.979 31.9217 256.964 32.0098 256.943 32.0811C256.922 32.1524 256.897 32.2153 256.868 32.2698C256.838 32.3243 256.771 32.404 256.667 32.5089C256.562 32.6137 256.383 32.7438 256.132 32.899C255.88 33.0542 255.597 33.1926 255.282 33.3142C254.968 33.4359 254.626 33.5344 254.257 33.6099C253.888 33.6854 253.506 33.7232 253.112 33.7232C252.298 33.7232 251.576 33.589 250.947 33.3205C250.318 33.0521 249.792 32.6599 249.368 32.144C248.944 31.628 248.621 30.9947 248.399 30.2438C248.177 29.493 248.066 28.6269 248.066 27.6453C248.066 26.5296 248.202 25.5711 248.475 24.77C248.747 23.9688 249.121 23.3124 249.595 22.8006C250.069 22.2889 250.626 21.9093 251.268 21.6618C251.91 21.4143 252.604 21.2906 253.351 21.2906C253.711 21.2906 254.062 21.3242 254.401 21.3913C254.741 21.4584 255.054 21.5465 255.339 21.6555C255.624 21.7646 255.878 21.8904 256.1 22.033C256.323 22.1756 256.484 22.2973 256.585 22.398C256.685 22.4986 256.755 22.5783 256.792 22.637C256.83 22.6958 256.862 22.765 256.887 22.8447C256.912 22.9244 256.929 23.0145 256.937 23.1152C256.945 23.2159 256.95 23.3417 256.95 23.4927C256.95 23.8199 256.912 24.0485 256.836 24.1785C256.761 24.3086 256.669 24.3736 256.56 24.3736C256.434 24.3736 256.289 24.3044 256.125 24.1659C255.962 24.0275 255.754 23.8744 255.503 23.7066C255.251 23.5389 254.947 23.3858 254.59 23.2473C254.234 23.1089 253.812 23.0397 253.326 23.0397C252.327 23.0397 251.562 23.4235 251.029 24.1911C250.496 24.9587 250.23 26.0724 250.23 27.532C250.23 28.2619 250.299 28.9015 250.438 29.451C250.576 30.0005 250.78 30.4598 251.048 30.8289C251.316 31.198 251.646 31.4728 252.036 31.6531C252.426 31.8335 252.873 31.9237 253.376 31.9237C253.854 31.9237 254.274 31.8482 254.634 31.6972C254.995 31.5462 255.308 31.3805 255.572 31.2001C255.836 31.0198 256.058 30.8562 256.239 30.7094C256.419 30.5626 256.56 30.4892 256.66 30.4892C256.719 30.4892 256.769 30.5059 256.811 30.5395C256.853 30.5731 256.889 30.6297 256.918 30.7094C256.948 30.7891 256.969 30.8897 256.981 31.0114C256.994 31.133 257 31.2777 257 31.4455Z" fill="white"/>
</svg>
