<svg width="45" height="45" viewBox="0 0 45 45" fill="none" xmlns="http://www.w3.org/2000/svg">
<path fill-rule="evenodd" clip-rule="evenodd" d="M22.5 45C34.9264 45 45 34.9264 45 22.5C45 10.0736 34.9264 0 22.5 0C10.0736 0 0 10.0736 0 22.5C0 34.9264 10.0736 45 22.5 45ZM24.1051 33.6518L27.4099 32.9821C27.9399 32.8789 28.4256 32.6238 28.8038 32.25L31.4623 29.6786V32.3214C31.4602 33.0312 31.1677 33.7113 30.6488 34.2131C30.1299 34.715 29.4268 34.9979 28.693 35H15.7694C15.0355 34.9979 14.3324 34.715 13.8135 34.2131C13.2947 33.7113 13.0022 33.0312 13 32.3214V12.6786C13.0022 11.9688 13.2947 11.2887 13.8135 10.7869C14.3324 10.285 15.0355 10.0021 15.7694 10H28.693C29.4268 10.0021 30.1299 10.285 30.6488 10.7869C31.1677 11.2887 31.4602 11.9688 31.4623 12.6786V17.125C31.2857 17.2495 31.1191 17.3868 30.9639 17.5357L22.2773 25.9375C21.8909 26.3033 21.6271 26.773 21.5204 27.2857L20.828 30.4821C20.7312 30.9179 20.7489 31.3701 20.8795 31.7975C21.0101 32.2249 21.2495 32.6138 21.5758 32.9286C22.0955 33.4298 22.7988 33.7122 23.5328 33.7143C23.7252 33.7116 23.9169 33.6907 24.1051 33.6518ZM26.8468 13.5714H17.6156C17.3708 13.5714 17.136 13.6655 16.9628 13.8329C16.7897 14.0004 16.6925 14.2275 16.6925 14.4643C16.6925 14.7011 16.7897 14.9282 16.9628 15.0956C17.136 15.2631 17.3708 15.3571 17.6156 15.3571H26.8468C27.0916 15.3571 27.3264 15.2631 27.4995 15.0956C27.6726 14.9282 27.7699 14.7011 27.7699 14.4643C27.7699 14.2275 27.6726 14.0004 27.4995 13.8329C27.3264 13.6655 27.0916 13.5714 26.8468 13.5714ZM26.8468 17.1429H17.6156C17.3708 17.1429 17.136 17.2369 16.9628 17.4044C16.7897 17.5718 16.6925 17.7989 16.6925 18.0357C16.6925 18.2725 16.7897 18.4996 16.9628 18.6671C17.136 18.8345 17.3708 18.9286 17.6156 18.9286H26.8468C27.0916 18.9286 27.3264 18.8345 27.4995 18.6671C27.6726 18.4996 27.7699 18.2725 27.7699 18.0357C27.7699 17.7989 27.6726 17.5718 27.4995 17.4044C27.3264 17.2369 27.0916 17.1429 26.8468 17.1429ZM16.9628 20.9758C16.7897 21.1432 16.6925 21.3703 16.6925 21.6071C16.6925 21.8439 16.7897 22.071 16.9628 22.2385C17.136 22.4059 17.3708 22.5 17.6156 22.5H21.3081C21.5529 22.5 21.7877 22.4059 21.9608 22.2385C22.1339 22.071 22.2312 21.8439 22.2312 21.6071C22.2312 21.3703 22.1339 21.1432 21.9608 20.9758C21.7877 20.8084 21.5529 20.7143 21.3081 20.7143H17.6156C17.3708 20.7143 17.136 20.8084 16.9628 20.9758ZM34.2322 18.0359C34.9615 18.0359 35.6629 18.3076 36.1906 18.7946L36.1887 18.7938C36.4459 19.0425 36.6499 19.3378 36.7892 19.6628C36.9284 19.9878 37 20.3362 37 20.6879C37 21.0397 36.9284 21.3881 36.7892 21.7131C36.6499 22.0381 36.4459 22.3334 36.1887 22.5821L27.4939 30.9911C27.3675 31.1132 27.2071 31.1973 27.0323 31.233L23.7266 31.9054C23.6641 31.9185 23.6004 31.925 23.5365 31.925C23.3991 31.9249 23.2636 31.8952 23.1396 31.8381C23.0157 31.7809 22.9065 31.6977 22.82 31.5945C22.7335 31.4914 22.6719 31.3708 22.6396 31.2417C22.6074 31.1126 22.6054 30.9782 22.6337 30.8482L23.3278 27.6509C23.3648 27.4818 23.4517 27.3267 23.578 27.2045L32.2738 18.7946C32.8014 18.3076 33.5028 18.0359 34.2322 18.0359Z" fill="#006496"/>
</svg>
