<svg width="45" height="45" viewBox="0 0 45 45" fill="none" xmlns="http://www.w3.org/2000/svg">
<path fill-rule="evenodd" clip-rule="evenodd" d="M22.5 45C34.9264 45 45 34.9264 45 22.5C45 10.0736 34.9264 0 22.5 0C10.0736 0 0 10.0736 0 22.5C0 34.9264 10.0736 45 22.5 45ZM13 19.304C13 14.1737 17.2616 10 22.4999 10C27.7382 10 31.9999 14.1737 32 19.3039C32 22.3266 30.4902 25.8572 27.5124 29.7977C25.3309 32.6844 23.1799 34.6875 23.0894 34.7713C22.9247 34.9239 22.7123 35 22.5001 35C22.2815 35 22.0632 34.9194 21.8972 34.7586C21.8069 34.6711 19.6613 32.5835 17.4839 29.6564C14.5086 25.6567 13 22.1736 13 19.304ZM17.8555 18.8523C17.8555 21.3161 19.939 23.3206 22.4999 23.3206C25.0608 23.3206 27.1444 21.3161 27.1444 18.8523C27.1444 16.3885 25.0609 14.384 22.4999 14.384C19.939 14.384 17.8555 16.3885 17.8555 18.8523Z" fill="#006496"/>
</svg>
