<svg width="45" height="45" viewBox="0 0 45 45" fill="none" xmlns="http://www.w3.org/2000/svg">
<path fill-rule="evenodd" clip-rule="evenodd" d="M22.5 45C34.9264 45 45 34.9264 45 22.5C45 10.0736 34.9264 0 22.5 0C10.0736 0 0 10.0736 0 22.5C0 34.9264 10.0736 45 22.5 45ZM22.5 10C26.1574 10 29.2263 11.2097 31.6214 13.5955C33.8554 15.8218 34.9881 18.4916 34.988 21.5307C34.988 23.9993 34.5892 26.048 33.803 27.6201L32.9968 29.2744H25.7973L25.3681 28.0263C24.2909 29.0579 22.9767 29.5809 21.4594 29.5809L21.4202 29.5808C19.5321 29.571 17.9776 28.7995 16.8004 27.2876C15.7719 25.9774 15.2501 24.4829 15.2501 22.8467C15.2501 21.0851 15.8046 19.5311 16.8983 18.2276C18.0857 16.8147 19.6076 16.0984 21.4219 16.0984C22.1022 16.0984 22.8169 16.2382 23.546 16.5137C24.0728 16.7195 24.5287 16.9685 24.9067 17.2563V15.9004H27.9128V26.8422L31.1663 26.8406C31.4323 26.2684 32.3006 24.1955 32.3006 21.5308C32.3006 19.0969 31.416 16.9923 29.6713 15.2756C27.8142 13.4448 25.4015 12.5165 22.5 12.5165C19.7321 12.5165 17.382 13.4908 15.5156 15.4123C13.677 17.2988 12.745 19.6429 12.745 22.3798C12.745 25.0938 13.6241 27.4603 15.3577 29.4137C17.2126 31.488 19.6158 32.5402 22.5 32.5402C22.6713 32.5402 22.8423 32.5378 23.0132 32.5341V34.9961C22.8423 34.9986 22.6712 35 22.5 35C18.8376 35 15.7761 33.697 13.4006 31.127C11.1522 28.7051 10.0119 25.7619 10.0119 22.3797C10.0119 19.0039 11.2 16.0779 13.5429 13.683C15.9382 11.2391 18.9518 10 22.5 10ZM21.5124 26.753C22.4101 26.753 23.16 26.376 23.8051 25.6005C24.455 24.8193 24.7845 23.8691 24.7845 22.7761C24.7845 21.4727 24.3881 20.4698 23.5728 19.7099C22.924 19.1054 22.246 18.7989 21.5579 18.7989C20.4457 18.7989 19.5566 19.2176 18.84 20.0788C18.2004 20.8502 17.876 21.753 17.876 22.7619C17.876 23.6663 18.159 24.5226 18.717 25.3069C19.413 26.2798 20.3275 26.753 21.5124 26.753Z" fill="#006496"/>
</svg>
