<svg width="45" height="45" viewBox="0 0 45 45" fill="none" xmlns="http://www.w3.org/2000/svg">
<path fill-rule="evenodd" clip-rule="evenodd" d="M22.5 45C34.9264 45 45 34.9264 45 22.5C45 10.0736 34.9264 0 22.5 0C10.0736 0 0 10.0736 0 22.5C0 34.9264 10.0736 45 22.5 45ZM13.909 10.1759C13.5476 10.3124 13.2193 10.5242 12.946 10.7972L11.3304 12.4129C10.1742 13.5692 9.66637 15.2989 10.232 16.9084C11.6829 21.0312 14.0432 24.7744 17.138 27.8605C20.2243 30.9557 23.9678 33.3162 28.0908 34.767C29.7017 35.3342 31.4298 34.8264 32.586 33.6701L34.2015 32.0544C35.3609 30.8965 35.2421 28.9824 33.9469 27.9745L30.3438 25.1713C30.0175 24.9177 29.6378 24.7416 29.2334 24.6563C28.829 24.571 28.4105 24.5788 28.0095 24.6791L24.5893 25.5338C24.4119 25.5783 24.2259 25.576 24.0496 25.5273C23.8733 25.4785 23.7126 25.385 23.5831 25.2557L19.7442 21.4164C19.6151 21.2871 19.5217 21.1267 19.473 20.9506C19.4243 20.7746 19.4219 20.5889 19.4661 20.4117L20.3207 16.9896C20.5238 16.1771 20.3426 15.3161 19.8286 14.6552L17.024 11.0519C16.7867 10.747 16.4873 10.496 16.1456 10.3156C15.804 10.1351 15.4279 10.0294 15.0424 10.0053C14.6568 9.98122 14.2705 10.0394 13.909 10.1759Z" fill="#006496"/>
</svg>
