<svg width="45" height="45" viewBox="0 0 45 45" fill="none" xmlns="http://www.w3.org/2000/svg">
<path fill-rule="evenodd" clip-rule="evenodd" d="M22.5 45C34.9264 45 45 34.9264 45 22.5C45 10.0736 34.9264 0 22.5 0C10.0736 0 0 10.0736 0 22.5C0 34.9264 10.0736 45 22.5 45ZM16.2021 24.1437L10.4416 22.0694C9.85649 21.8579 9.85141 21.061 10.4348 20.8439L34.0761 12.0451C34.5773 11.8581 35.0944 12.2817 34.9853 12.7895L30.7427 32.4783C30.6427 32.9431 30.0778 33.1539 29.679 32.8743L23.8875 28.8176C23.5358 28.5713 23.0563 28.5845 22.7198 28.8491L19.5088 31.3745C19.136 31.6686 18.5744 31.5048 18.4318 31.0617L16.2021 24.1437ZM29.3306 16.3498L18.0724 23.0395C17.6409 23.2965 17.4377 23.7992 17.5772 24.2698L18.7944 28.3963C18.8808 28.6887 19.3208 28.6587 19.3627 28.3566L19.6792 26.0937C19.7388 25.6676 19.9495 25.2751 20.2761 24.9818L29.5673 16.6494C29.7411 16.4939 29.5329 16.2299 29.3306 16.3498Z" fill="#006496"/>
</svg>
