<svg width="45" height="45" viewBox="0 0 45 45" fill="none" xmlns="http://www.w3.org/2000/svg">
<path fill-rule="evenodd" clip-rule="evenodd" d="M22.5 45C34.9264 45 45 34.9264 45 22.5C45 10.0736 34.9264 0 22.5 0C10.0736 0 0 10.0736 0 22.5C0 34.9264 10.0736 45 22.5 45ZM32.1809 25.5737C31.9583 25.3203 31.7355 25.0669 31.5161 24.8094C30.7683 23.933 30.7205 23.4244 31.3225 22.4154C31.6712 21.8273 32.0345 21.2516 32.3976 20.6762C32.7168 20.1705 33.0358 19.665 33.3448 19.1512C33.3682 19.1124 33.3915 19.0735 33.4149 19.0346C34.0102 18.0447 34.6072 17.0519 34.9198 15.8694C35.1259 15.0861 34.943 14.741 34.2755 14.6043C34.1617 14.5809 34.0428 14.5789 33.9254 14.5789L29.9639 14.5746C29.4757 14.5633 29.2056 14.8195 29.0334 15.3402C28.801 16.042 28.5613 16.7443 28.2824 17.4206C27.654 18.9587 26.9507 20.444 25.9652 21.7008C25.9511 21.7187 25.9369 21.7369 25.9226 21.7552C25.7154 22.0211 25.4835 22.3187 25.1431 22.185C24.6885 21.9842 24.5553 21.0842 24.5624 20.7809L24.5588 15.2869C24.4701 14.5035 24.3262 14.1537 23.6782 14H19.5621C19.0133 14 18.7379 14.2563 18.4452 14.6681C18.2766 14.9069 18.2248 15.0625 18.5729 15.1418C19.2551 15.2972 19.6402 15.829 19.7415 16.6505C19.9066 17.9667 19.8942 19.2854 19.8001 20.6063C19.7717 20.9902 19.7165 21.3763 19.5904 21.7348C19.3917 22.3001 19.0701 22.4153 18.6477 22.0678C18.266 21.7539 17.9979 21.308 17.7349 20.8621C16.7476 19.1872 15.961 17.3802 15.3182 15.4809C15.1318 14.9327 14.8121 14.5999 14.3292 14.5914C13.1396 14.5676 11.9516 14.5656 10.7635 14.5934C10.048 14.6082 9.83491 15.0265 10.1263 15.8057C11.4206 19.2643 12.8608 22.6287 14.7414 25.6905C15.7072 27.2628 16.8169 28.6517 18.248 29.6356C19.8711 30.7516 21.6184 31.0863 23.4595 30.9819C24.321 30.9348 24.5802 30.6638 24.6192 29.6333C24.6476 28.927 24.7133 28.2253 25.0026 27.5915C25.2868 26.9684 25.7183 26.8497 26.2155 27.2375C26.4641 27.4314 26.6721 27.6768 26.8709 27.9376C27.0277 28.1439 27.1826 28.3522 27.3376 28.5605C27.6617 28.9962 27.9858 29.432 28.327 29.8496C28.9571 30.6213 29.7064 31.0757 30.6458 30.982L34.2879 30.984C34.8738 30.9371 35.1792 30.0731 34.842 29.288C34.604 28.7356 34.293 28.2445 33.9644 27.7686C33.4175 26.9811 32.7994 26.2777 32.1809 25.5737Z" fill="#006496"/>
</svg>
