<svg width="257" height="55" viewBox="0 0 257 55" fill="none" xmlns="http://www.w3.org/2000/svg">
<path fill-rule="evenodd" clip-rule="evenodd" d="M42.2875 41.4015L49.1737 54.0414H42.5597C39.2617 47.9365 35.9866 41.8755 32.6512 35.7537C38.5471 35.7537 44.4431 35.6998 50.3542 35.6682L58.8909 20.8745L50.1312 5.69519L9.71653 5.68641L12.3367 10.3656H47.4513L53.5176 20.8745L47.6462 31.047H24.7127L37.1864 54.0414H30.6759L15.0336 25.3302C24.8116 25.3302 34.5896 25.3407 44.3746 25.3407L46.9533 20.8745L44.1791 16.0719H9.00075L0 0L53.4122 0.0122905L65.4511 20.8745L53.6393 41.3435L42.2875 41.4015Z" fill="#00AEF2"/>
<path fill-rule="evenodd" clip-rule="evenodd" d="M6.55908 11.7221L8.99377 16.1169L12.335 10.4106L9.71833 5.69043L6.55908 11.7221Z" fill="#006496"/>
<path fill-rule="evenodd" clip-rule="evenodd" d="M21.5013 37.2028L30.6759 54.0413H37.1858L24.7138 31.0552L21.5013 37.2028Z" fill="#006496"/>
<path fill-rule="evenodd" clip-rule="evenodd" d="M42.2875 41.4014L38.9632 47.388L42.5596 54.0413H49.1737L42.2875 41.4014Z" fill="#006496"/>
<path fill-rule="evenodd" clip-rule="evenodd" d="M44.3875 25.3149L15.0336 25.3302L21.5014 37.2028L24.7145 31.0552L40.9227 31.047L44.3875 25.3149Z" fill="#0084C6"/>
<path fill-rule="evenodd" clip-rule="evenodd" d="M32.6512 35.754L39.0024 47.4598L42.2875 41.4018L46.7191 41.3725L50.377 35.6475L32.6512 35.754Z" fill="#0084C6"/>
<path fill-rule="evenodd" clip-rule="evenodd" d="M47.4507 10.3657H12.3361L8.99371 16.1171L44.1791 16.072L47.4507 10.3657Z" fill="#0084C6"/>
<path d="M92.3945 33.1692C92.3945 33.2363 92.3777 33.2929 92.3441 33.3391C92.3106 33.3852 92.2519 33.425 92.168 33.4586C92.0841 33.4922 91.9729 33.5173 91.8345 33.5341C91.6961 33.5509 91.522 33.5593 91.3123 33.5593C91.1109 33.5593 90.939 33.5509 90.7964 33.5341C90.6537 33.5173 90.5426 33.4922 90.4629 33.4586C90.3832 33.425 90.3245 33.3852 90.2867 33.3391C90.249 33.2929 90.2301 33.2363 90.2301 33.1692V19.0756H82.8687V33.1692C82.8687 33.2363 82.8499 33.2929 82.8121 33.3391C82.7744 33.3852 82.7156 33.425 82.6359 33.4586C82.5562 33.4922 82.4472 33.5173 82.3088 33.5341C82.1703 33.5509 81.9963 33.5593 81.7865 33.5593C81.5768 33.5593 81.4027 33.5509 81.2643 33.5341C81.1259 33.5173 81.0148 33.4922 80.9309 33.4586C80.847 33.425 80.7882 33.3852 80.7547 33.3391C80.7211 33.2929 80.7043 33.2363 80.7043 33.1692V18.0815C80.7043 17.7879 80.7777 17.5677 80.9246 17.4209C81.0714 17.274 81.258 17.2006 81.4845 17.2006H91.6395C91.8744 17.2006 92.0589 17.274 92.1931 17.4209C92.3274 17.5677 92.3945 17.7879 92.3945 18.0815V33.1692Z" fill="#003555"/>
<path d="M106.903 27.3305C106.903 28.3204 106.796 29.2096 106.583 29.9982C106.369 30.7867 106.054 31.4558 105.639 32.0052C105.223 32.5547 104.71 32.9784 104.097 33.2762C103.485 33.574 102.784 33.7229 101.996 33.7229C101.66 33.7229 101.35 33.6893 101.065 33.6222C100.779 33.5551 100.5 33.4503 100.228 33.3077C99.9551 33.1651 99.6846 32.9847 99.4161 32.7666C99.1477 32.5485 98.8625 32.2926 98.5605 31.999V37.6616C98.5605 37.7287 98.5437 37.7874 98.5101 37.8378C98.4766 37.8881 98.422 37.93 98.3465 37.9636C98.271 37.9972 98.1662 38.0223 98.0319 38.0391C97.8977 38.0559 97.7257 38.0643 97.516 38.0643C97.3147 38.0643 97.1469 38.0559 97.0127 38.0391C96.8784 38.0223 96.7715 37.9972 96.6918 37.9636C96.6121 37.93 96.5576 37.8881 96.5282 37.8378C96.4989 37.7874 96.4842 37.7287 96.4842 37.6616V21.8441C96.4842 21.7686 96.4968 21.7078 96.5219 21.6616C96.5471 21.6155 96.5974 21.5756 96.6729 21.5421C96.7484 21.5085 96.8449 21.4854 96.9623 21.4728C97.0798 21.4603 97.2224 21.454 97.3902 21.454C97.5663 21.454 97.7111 21.4603 97.8243 21.4728C97.9376 21.4854 98.0319 21.5085 98.1074 21.5421C98.1829 21.5756 98.2354 21.6155 98.2647 21.6616C98.2941 21.7078 98.3088 21.7686 98.3088 21.8441V23.3667C98.6527 23.0143 98.9841 22.7081 99.3029 22.4481C99.6216 22.188 99.9425 21.972 100.266 21.8C100.588 21.628 100.92 21.498 101.26 21.4099C101.599 21.3218 101.958 21.2778 102.335 21.2778C103.158 21.2778 103.858 21.4372 104.437 21.756C105.016 22.0748 105.488 22.511 105.853 23.0647C106.218 23.6183 106.484 24.2622 106.652 24.9962C106.819 25.7303 106.903 26.5084 106.903 27.3305ZM104.714 27.5695C104.714 26.9907 104.67 26.4307 104.582 25.8896C104.494 25.3485 104.343 24.8682 104.129 24.4488C103.915 24.0293 103.627 23.6938 103.267 23.4421C102.906 23.1904 102.457 23.0646 101.92 23.0646C101.652 23.0646 101.388 23.1045 101.128 23.1841C100.867 23.2638 100.603 23.3897 100.335 23.5616C100.066 23.7336 99.7853 23.9601 99.4917 24.2412C99.1981 24.5222 98.8877 24.8682 98.5605 25.2793V29.7842C99.1309 30.4805 99.672 31.0132 100.184 31.3823C100.695 31.7514 101.232 31.936 101.794 31.936C102.315 31.936 102.761 31.8102 103.135 31.5585C103.508 31.3068 103.81 30.9713 104.041 30.5518C104.271 30.1324 104.441 29.6626 104.55 29.1425C104.659 28.6223 104.714 28.098 104.714 27.5695Z" fill="#003555"/>
<path d="M118.556 33.1818C118.556 33.2825 118.522 33.358 118.455 33.4084C118.388 33.4587 118.296 33.4964 118.178 33.5216C118.061 33.5468 117.889 33.5594 117.662 33.5594C117.444 33.5594 117.27 33.5468 117.14 33.5216C117.01 33.4964 116.916 33.4587 116.857 33.4084C116.798 33.358 116.769 33.2825 116.769 33.1819V32.0493C116.274 32.5778 115.722 32.9889 115.114 33.2825C114.506 33.5761 113.862 33.7229 113.182 33.7229C112.587 33.7229 112.048 33.6453 111.565 33.4902C111.083 33.335 110.672 33.1106 110.332 32.8169C109.993 32.5233 109.728 32.1626 109.54 31.7348C109.351 31.3069 109.256 30.8203 109.256 30.2751C109.256 29.6375 109.386 29.0838 109.646 28.614C109.907 28.1443 110.28 27.7542 110.766 27.4438C111.253 27.1334 111.849 26.9006 112.553 26.7454C113.258 26.5902 114.051 26.5126 114.932 26.5126H116.492V25.6317C116.492 25.1955 116.446 24.8096 116.354 24.474C116.261 24.1385 116.112 23.8595 115.907 23.6372C115.701 23.4149 115.435 23.2471 115.108 23.1339C114.781 23.0206 114.378 22.964 113.9 22.964C113.388 22.964 112.929 23.0248 112.522 23.1465C112.115 23.2681 111.758 23.4023 111.452 23.5491C111.146 23.696 110.89 23.8302 110.685 23.9518C110.479 24.0735 110.326 24.1343 110.225 24.1343C110.158 24.1343 110.1 24.1175 110.049 24.084C109.999 24.0504 109.955 24.0001 109.917 23.933C109.879 23.8658 109.852 23.7799 109.835 23.675C109.819 23.5701 109.81 23.4548 109.81 23.329C109.81 23.1192 109.825 22.9535 109.854 22.8319C109.884 22.7102 109.955 22.5949 110.068 22.4858C110.181 22.3768 110.376 22.2488 110.653 22.102C110.93 21.9552 111.249 21.821 111.61 21.6993C111.97 21.5777 112.365 21.477 112.792 21.3973C113.22 21.3176 113.652 21.2778 114.089 21.2778C114.902 21.2778 115.594 21.3701 116.165 21.5546C116.735 21.7392 117.197 22.0097 117.549 22.3663C117.901 22.7228 118.157 23.1653 118.317 23.6938C118.476 24.2223 118.556 24.8389 118.556 25.5436V33.1818ZM116.492 28.01L114.718 28.01C114.147 28.01 113.652 28.0582 113.233 28.1547C112.813 28.2512 112.465 28.3938 112.188 28.5826C111.911 28.7713 111.708 28.9978 111.578 29.2621C111.448 29.5263 111.383 29.8304 111.383 30.1744C111.383 30.7616 111.57 31.2293 111.943 31.5775C112.316 31.9256 112.838 32.0997 113.51 32.0997C114.055 32.0997 114.56 31.9612 115.026 31.6844C115.491 31.4076 115.98 30.9839 116.492 30.4135V28.01Z" fill="#003555"/>
<path d="M131.668 29.9101C131.668 30.5057 131.555 31.0363 131.328 31.5019C131.102 31.9675 130.766 32.3575 130.321 32.6721C129.877 32.9867 129.323 33.2258 128.66 33.3894C127.998 33.553 127.226 33.6348 126.345 33.6348C126.068 33.6348 125.8 33.6327 125.54 33.6285C125.28 33.6243 125.028 33.6159 124.785 33.6033C124.541 33.5907 124.3 33.5761 124.061 33.5593C123.822 33.5425 123.585 33.5215 123.35 33.4964C123.014 33.4544 122.767 33.3433 122.608 33.1629C122.448 32.9825 122.369 32.7162 122.369 32.3639V22.6116C122.369 22.2677 122.446 22.0034 122.601 21.8188C122.757 21.6343 122.993 21.5252 123.312 21.4916C123.53 21.4665 123.763 21.4455 124.011 21.4287C124.258 21.412 124.512 21.3973 124.772 21.3847C125.032 21.3721 125.3 21.3616 125.577 21.3532C125.854 21.3448 126.135 21.3406 126.42 21.3406C127.234 21.3406 127.939 21.4078 128.534 21.542C129.13 21.6762 129.625 21.8734 130.019 22.1334C130.414 22.3935 130.705 22.7123 130.894 23.0898C131.083 23.4673 131.177 23.8993 131.177 24.3859C131.177 25.0234 131.007 25.5687 130.667 26.0217C130.328 26.4747 129.826 26.7977 129.164 26.9907C129.994 27.1668 130.619 27.5066 131.039 28.0099C131.458 28.5133 131.668 29.1467 131.668 29.9101ZM129.164 24.6501C129.164 24.3733 129.113 24.1258 129.013 23.9077C128.912 23.6896 128.746 23.505 128.516 23.354C128.285 23.203 127.987 23.0898 127.622 23.0143C127.257 22.9388 126.815 22.901 126.295 22.901C125.9 22.901 125.54 22.9115 125.212 22.9325C124.885 22.9534 124.608 22.9765 124.382 23.0017V26.5251H126.496C127.36 26.5251 128.021 26.3636 128.478 26.0406C128.935 25.7176 129.164 25.2541 129.164 24.6501ZM129.541 29.9478C129.541 29.6122 129.482 29.3165 129.365 29.0607C129.248 28.8048 129.061 28.593 128.805 28.4252C128.549 28.2574 128.222 28.1316 127.824 28.0477C127.425 27.9638 126.953 27.9219 126.408 27.9219H124.382V31.936C124.541 31.9612 124.707 31.9801 124.879 31.9926L125.407 32.0304C125.588 32.043 125.768 32.0535 125.949 32.0618C126.129 32.0702 126.295 32.0744 126.446 32.0744C126.991 32.0744 127.456 32.0262 127.842 31.9297C128.228 31.8332 128.549 31.6927 128.805 31.5082C129.061 31.3236 129.248 31.0992 129.365 30.8349C129.482 30.5707 129.541 30.275 129.541 29.9478Z" fill="#003555"/>
<path d="M145.245 27.3808C145.245 28.3036 145.124 29.153 144.88 29.929C144.637 30.705 144.274 31.374 143.792 31.9361C143.31 32.4982 142.706 32.9365 141.98 33.2511C141.254 33.5657 140.413 33.7229 139.457 33.7229C138.526 33.7229 137.714 33.5845 137.022 33.3077C136.33 33.0308 135.753 32.6282 135.292 32.0997C134.83 31.5712 134.486 30.9294 134.26 30.1744C134.033 29.4194 133.92 28.5637 133.92 27.6073C133.92 26.6845 134.04 25.8352 134.279 25.0592C134.518 24.2832 134.879 23.6141 135.361 23.0521C135.843 22.49 136.445 22.0538 137.167 21.7434C137.888 21.433 138.731 21.2778 139.696 21.2778C140.627 21.2778 141.439 21.4162 142.131 21.693C142.823 21.9699 143.4 22.3726 143.861 22.9011C144.323 23.4296 144.669 24.0713 144.899 24.8263C145.13 25.5814 145.245 26.4329 145.245 27.3808ZM143.056 27.5192C143.056 26.9068 142.999 26.328 142.886 25.7827C142.773 25.2374 142.586 24.7593 142.326 24.3482C142.066 23.9371 141.714 23.6121 141.269 23.373C140.824 23.1339 140.271 23.0143 139.608 23.0143C138.996 23.0143 138.469 23.1234 138.029 23.3415C137.588 23.5596 137.225 23.8679 136.94 24.2664C136.655 24.6649 136.443 25.1368 136.305 25.6821C136.166 26.2273 136.097 26.823 136.097 27.4689C136.097 28.0897 136.154 28.6727 136.267 29.218C136.38 29.7633 136.569 30.2394 136.833 30.6462C137.098 31.0531 137.452 31.3761 137.897 31.6152C138.341 31.8543 138.895 31.9738 139.558 31.9738C140.162 31.9738 140.686 31.8647 141.131 31.6466C141.575 31.4285 141.94 31.1223 142.225 30.728C142.511 30.3338 142.72 29.864 142.855 29.3187C142.989 28.7734 143.056 28.1736 143.056 27.5192Z" fill="#003555"/>
<path d="M157.602 29.9101C157.602 30.5057 157.489 31.0363 157.263 31.5019C157.036 31.9675 156.701 32.3575 156.256 32.6721C155.811 32.9867 155.258 33.2258 154.595 33.3894C153.932 33.553 153.16 33.6348 152.28 33.6348C152.003 33.6348 151.734 33.6327 151.474 33.6285C151.214 33.6243 150.963 33.6159 150.719 33.6033C150.476 33.5907 150.235 33.5761 149.996 33.5593C149.757 33.5425 149.52 33.5215 149.285 33.4964C148.949 33.4544 148.702 33.3433 148.542 33.1629C148.383 32.9825 148.303 32.7162 148.303 32.3639V22.6116C148.303 22.2677 148.381 22.0034 148.536 21.8188C148.691 21.6343 148.928 21.5252 149.247 21.4916C149.465 21.4665 149.698 21.4455 149.945 21.4287C150.193 21.412 150.447 21.3973 150.707 21.3847C150.967 21.3721 151.235 21.3616 151.512 21.3532C151.789 21.3448 152.07 21.3406 152.355 21.3406C153.169 21.3406 153.874 21.4078 154.469 21.542C155.065 21.6762 155.56 21.8734 155.954 22.1334C156.348 22.3935 156.64 22.7123 156.829 23.0898C157.017 23.4673 157.112 23.8993 157.112 24.3859C157.112 25.0234 156.942 25.5687 156.602 26.0217C156.262 26.4747 155.761 26.7977 155.098 26.9907C155.929 27.1668 156.554 27.5066 156.973 28.0099C157.393 28.5133 157.602 29.1467 157.602 29.9101ZM155.098 24.6501C155.098 24.3733 155.048 24.1258 154.947 23.9077C154.847 23.6896 154.681 23.505 154.45 23.354C154.22 23.203 153.922 23.0898 153.557 23.0143C153.192 22.9388 152.749 22.901 152.229 22.901C151.835 22.901 151.474 22.9115 151.147 22.9325C150.82 22.9534 150.543 22.9765 150.317 23.0017V26.5251H152.431C153.295 26.5251 153.955 26.3636 154.413 26.0406C154.87 25.7176 155.098 25.2541 155.098 24.6501ZM155.476 29.9478C155.476 29.6122 155.417 29.3165 155.3 29.0607C155.182 28.8048 154.996 28.593 154.74 28.4252C154.484 28.2574 154.157 28.1316 153.758 28.0477C153.36 27.9638 152.888 27.9219 152.343 27.9219H150.317V31.936C150.476 31.9612 150.642 31.9801 150.814 31.9926L151.342 32.0304C151.523 32.043 151.703 32.0535 151.883 32.0618C152.064 32.0702 152.229 32.0744 152.38 32.0744C152.926 32.0744 153.391 32.0262 153.777 31.9297C154.163 31.8332 154.484 31.6927 154.74 31.5082C154.996 31.3236 155.182 31.0992 155.3 30.8349C155.417 30.5707 155.476 30.275 155.476 29.9478Z" fill="#003555"/>
<path d="M171.18 27.3808C171.18 28.3036 171.058 29.153 170.815 29.929C170.572 30.705 170.209 31.374 169.727 31.9361C169.244 32.4982 168.64 32.9365 167.915 33.2511C167.189 33.5657 166.348 33.7229 165.392 33.7229C164.461 33.7229 163.649 33.5845 162.957 33.3077C162.265 33.0308 161.688 32.6282 161.227 32.0997C160.765 31.5712 160.421 30.9294 160.195 30.1744C159.968 29.4194 159.855 28.5637 159.855 27.6073C159.855 26.6845 159.974 25.8352 160.214 25.0592C160.453 24.2832 160.813 23.6141 161.296 23.0521C161.778 22.49 162.38 22.0538 163.101 21.7434C163.823 21.433 164.666 21.2778 165.631 21.2778C166.562 21.2778 167.374 21.4162 168.066 21.693C168.758 21.9699 169.335 22.3726 169.796 22.9011C170.257 23.4296 170.603 24.0713 170.834 24.8263C171.065 25.5814 171.18 26.4329 171.18 27.3808ZM168.991 27.5192C168.991 26.9068 168.934 26.328 168.821 25.7827C168.707 25.2374 168.521 24.7593 168.261 24.3482C168.001 23.9371 167.648 23.6121 167.204 23.373C166.759 23.1339 166.205 23.0143 165.543 23.0143C164.93 23.0143 164.404 23.1234 163.963 23.3415C163.523 23.5596 163.16 23.8679 162.875 24.2664C162.59 24.6649 162.378 25.1368 162.239 25.6821C162.101 26.2273 162.032 26.823 162.032 27.4689C162.032 28.0897 162.088 28.6727 162.202 29.218C162.315 29.7633 162.504 30.2394 162.768 30.6462C163.032 31.0531 163.387 31.3761 163.831 31.6152C164.276 31.8543 164.83 31.9738 165.492 31.9738C166.096 31.9738 166.621 31.8647 167.065 31.6466C167.51 31.4285 167.875 31.1223 168.16 30.728C168.445 30.3338 168.655 29.864 168.789 29.3187C168.923 28.7734 168.991 28.1736 168.991 27.5192Z" fill="#003555"/>
<path d="M184.317 33.1818C184.317 33.2405 184.301 33.295 184.267 33.3453C184.234 33.3957 184.179 33.4355 184.103 33.4649C184.028 33.4942 183.923 33.5173 183.789 33.5341C183.655 33.5509 183.487 33.5593 183.286 33.5593C183.084 33.5593 182.916 33.5509 182.782 33.5341C182.648 33.5173 182.539 33.4942 182.455 33.4649C182.371 33.4355 182.312 33.3957 182.279 33.3453C182.245 33.295 182.229 33.2405 182.229 33.1818V26.6635C182.229 26.3363 182.237 26.0028 182.254 25.6631C182.27 25.3233 182.291 24.9899 182.317 24.6627C182.124 24.9983 181.912 25.3275 181.681 25.6505L180.983 26.6132L176.176 33.1818L176.019 33.3579C175.972 33.4083 175.914 33.4481 175.842 33.4775C175.771 33.5068 175.681 33.5278 175.572 33.5404C175.463 33.553 175.329 33.5593 175.169 33.5593C174.985 33.5593 174.834 33.5509 174.716 33.5341C174.599 33.5173 174.504 33.4943 174.433 33.4649C174.362 33.4356 174.311 33.3957 174.282 33.3454C174.253 33.295 174.238 33.2405 174.238 33.1818V21.8314C174.238 21.7727 174.253 21.7182 174.282 21.6678C174.311 21.6175 174.366 21.5756 174.446 21.542C174.525 21.5084 174.632 21.4854 174.766 21.4728C174.901 21.4602 175.064 21.4539 175.257 21.4539C175.66 21.4539 175.937 21.4854 176.088 21.5483C176.239 21.6112 176.314 21.7056 176.314 21.8314V28.3874C176.314 28.7146 176.306 29.0397 176.289 29.3627C176.272 29.6857 176.251 30.0065 176.226 30.3253L176.811 29.3878C177.008 29.0816 177.22 28.7817 177.447 28.4881L182.317 21.8314C182.367 21.7643 182.419 21.7056 182.474 21.6553C182.528 21.6049 182.595 21.5651 182.675 21.5357C182.755 21.5064 182.849 21.4854 182.958 21.4728C183.067 21.4602 183.21 21.4539 183.386 21.4539C183.562 21.4539 183.711 21.4602 183.833 21.4728C183.955 21.4854 184.051 21.5084 184.122 21.542C184.194 21.5756 184.244 21.6175 184.273 21.6678C184.303 21.7182 184.317 21.7769 184.317 21.844V33.1818ZM183.21 16.496C183.21 16.9742 183.139 17.423 182.996 17.8425C182.854 18.2619 182.627 18.629 182.317 18.9435C182.006 19.2581 181.608 19.5056 181.121 19.686C180.635 19.8663 180.043 19.9565 179.347 19.9565C178.709 19.9565 178.149 19.8768 177.667 19.7174C177.185 19.558 176.782 19.3294 176.459 19.0316C176.136 18.7338 175.893 18.371 175.729 17.9431C175.566 17.5153 175.484 17.0329 175.484 16.496C175.484 16.4121 175.498 16.3408 175.528 16.2821C175.557 16.2234 175.612 16.1772 175.691 16.1437C175.771 16.1101 175.876 16.0849 176.006 16.0682C176.136 16.0514 176.293 16.043 176.478 16.043C176.679 16.043 176.839 16.0535 176.956 16.0745C177.073 16.0954 177.164 16.1269 177.227 16.1688C177.29 16.2108 177.331 16.2653 177.352 16.3324C177.373 16.3995 177.384 16.4792 177.384 16.5715C177.384 16.8399 177.426 17.0874 177.51 17.3139C177.594 17.5404 177.722 17.7376 177.894 17.9053C178.066 18.0731 178.273 18.2031 178.516 18.2954C178.76 18.3877 179.041 18.4338 179.36 18.4338C179.67 18.4338 179.945 18.3877 180.184 18.2954C180.423 18.2031 180.626 18.0731 180.794 17.9053C180.962 17.7376 181.088 17.5362 181.172 17.3013C181.255 17.0664 181.297 16.8148 181.297 16.5463C181.297 16.4624 181.308 16.389 181.329 16.3261C181.35 16.2632 181.392 16.2107 181.455 16.1688C181.518 16.1269 181.606 16.0954 181.719 16.0744C181.832 16.0535 181.985 16.043 182.178 16.043C182.38 16.043 182.545 16.0514 182.675 16.0681C182.805 16.0849 182.91 16.1101 182.99 16.1436C183.07 16.1772 183.126 16.2233 183.16 16.2821C183.193 16.3408 183.21 16.4121 183.21 16.496Z" fill="#003555"/>
<path d="M202.136 31.4453C202.136 31.5879 202.131 31.7117 202.123 31.8166C202.115 31.9214 202.1 32.0095 202.079 32.0808C202.058 32.1521 202.033 32.215 202.004 32.2696C201.974 32.3241 201.907 32.4038 201.802 32.5086C201.697 32.6135 201.519 32.7435 201.267 32.8987C201.016 33.0539 200.733 33.1923 200.418 33.314C200.103 33.4356 199.762 33.5342 199.392 33.6097C199.023 33.6852 198.642 33.7229 198.247 33.7229C197.434 33.7229 196.712 33.5887 196.083 33.3203C195.454 33.0518 194.927 32.6596 194.504 32.1437C194.08 31.6278 193.757 30.9944 193.535 30.2436C193.312 29.4928 193.201 28.6266 193.201 27.6451C193.201 26.5293 193.338 25.5709 193.61 24.7697C193.883 23.9686 194.256 23.3121 194.73 22.8004C195.204 22.2887 195.762 21.9091 196.404 21.6616C197.046 21.4141 197.74 21.2904 198.486 21.2904C198.847 21.2904 199.197 21.3239 199.537 21.391C199.877 21.4581 200.189 21.5462 200.475 21.6553C200.76 21.7643 201.014 21.8902 201.236 22.0328C201.458 22.1754 201.62 22.297 201.72 22.3977C201.821 22.4984 201.89 22.5781 201.928 22.6368C201.966 22.6955 201.997 22.7647 202.022 22.8444C202.048 22.9241 202.064 23.0143 202.073 23.115C202.081 23.2156 202.085 23.3415 202.085 23.4925C202.085 23.8197 202.048 24.0483 201.972 24.1783C201.897 24.3083 201.804 24.3733 201.695 24.3733C201.569 24.3733 201.425 24.3041 201.261 24.1657C201.098 24.0273 200.89 23.8742 200.638 23.7064C200.387 23.5386 200.082 23.3855 199.726 23.2471C199.369 23.1087 198.948 23.0395 198.461 23.0395C197.463 23.0395 196.697 23.4233 196.165 24.1909C195.632 24.9585 195.366 26.0721 195.366 27.5318C195.366 28.2616 195.435 28.9013 195.573 29.4508C195.712 30.0003 195.915 30.4596 196.184 30.8287C196.452 31.1978 196.781 31.4725 197.171 31.6529C197.562 31.8333 198.008 31.9234 198.512 31.9234C198.99 31.9234 199.409 31.8479 199.77 31.6969C200.131 31.5459 200.443 31.3803 200.707 31.1999C200.972 31.0195 201.194 30.8559 201.374 30.7091C201.555 30.5623 201.695 30.4889 201.796 30.4889C201.855 30.4889 201.905 30.5057 201.947 30.5393C201.989 30.5728 202.025 30.6294 202.054 30.7091C202.083 30.7888 202.104 30.8895 202.117 31.0111C202.129 31.1328 202.136 31.2775 202.136 31.4453Z" fill="#003555"/>
<path d="M212.819 22.4606C212.819 22.6284 212.811 22.771 212.794 22.8884C212.777 23.0059 212.75 23.1023 212.712 23.1778C212.674 23.2533 212.63 23.31 212.58 23.3477C212.53 23.3855 212.467 23.4043 212.391 23.4043H208.994V33.1692C208.994 33.2363 208.977 33.2929 208.943 33.3391C208.91 33.3852 208.855 33.425 208.78 33.4586C208.704 33.4922 208.599 33.5173 208.465 33.5341C208.331 33.5509 208.159 33.5593 207.949 33.5593C207.748 33.5593 207.58 33.5509 207.446 33.5341C207.312 33.5173 207.205 33.4922 207.125 33.4586C207.045 33.425 206.991 33.3852 206.961 33.3391C206.932 33.2929 206.917 33.2363 206.917 33.1692V23.4043H203.52C203.453 23.4043 203.392 23.3855 203.337 23.3477C203.283 23.31 203.239 23.2533 203.205 23.1778C203.172 23.1023 203.144 23.0038 203.123 22.8821C203.102 22.7605 203.092 22.6158 203.092 22.448C203.092 22.297 203.102 22.1628 203.123 22.0453C203.144 21.9279 203.174 21.8293 203.212 21.7496C203.249 21.6699 203.293 21.6112 203.344 21.5734C203.394 21.5357 203.453 21.5168 203.52 21.5168H212.391C212.458 21.5168 212.519 21.5357 212.574 21.5734C212.628 21.6112 212.672 21.6699 212.706 21.7496C212.739 21.8293 212.767 21.93 212.788 22.0516C212.809 22.1733 212.819 22.3096 212.819 22.4606Z" fill="#003555"/>
<path d="M223.402 33.1818C223.402 33.2825 223.368 33.358 223.301 33.4084C223.234 33.4587 223.142 33.4964 223.024 33.5216C222.907 33.5468 222.735 33.5594 222.508 33.5594C222.29 33.5594 222.116 33.5468 221.986 33.5216C221.856 33.4964 221.762 33.4587 221.703 33.4084C221.644 33.358 221.615 33.2825 221.615 33.1819V32.0493C221.12 32.5778 220.568 32.9889 219.96 33.2825C219.352 33.5761 218.708 33.7229 218.029 33.7229C217.433 33.7229 216.894 33.6453 216.412 33.4902C215.929 33.335 215.518 33.1106 215.178 32.8169C214.839 32.5233 214.574 32.1626 214.386 31.7348C214.197 31.3069 214.103 30.8203 214.103 30.2751C214.103 29.6375 214.233 29.0838 214.493 28.614C214.753 28.1443 215.126 27.7542 215.613 27.4438C216.099 27.1334 216.695 26.9006 217.399 26.7454C218.104 26.5902 218.897 26.5126 219.778 26.5126H221.338V25.6317C221.338 25.1955 221.292 24.8096 221.2 24.474C221.107 24.1385 220.959 23.8595 220.753 23.6372C220.547 23.4149 220.281 23.2471 219.954 23.1339C219.627 23.0206 219.224 22.964 218.746 22.964C218.234 22.964 217.775 23.0248 217.368 23.1465C216.961 23.2681 216.605 23.4023 216.298 23.5491C215.992 23.696 215.736 23.8302 215.531 23.9518C215.325 24.0735 215.172 24.1343 215.072 24.1343C215.004 24.1343 214.946 24.1175 214.895 24.084C214.845 24.0504 214.801 24.0001 214.763 23.933C214.726 23.8658 214.698 23.7799 214.681 23.675C214.665 23.5701 214.656 23.4548 214.656 23.329C214.656 23.1192 214.671 22.9535 214.7 22.8319C214.73 22.7102 214.801 22.5949 214.914 22.4858C215.028 22.3768 215.223 22.2488 215.499 22.102C215.776 21.9552 216.095 21.821 216.456 21.6993C216.816 21.5777 217.211 21.477 217.639 21.3973C218.066 21.3176 218.498 21.2778 218.935 21.2778C219.748 21.2778 220.441 21.3701 221.011 21.5546C221.581 21.7392 222.043 22.0097 222.395 22.3663C222.748 22.7228 223.003 23.1653 223.163 23.6938C223.322 24.2223 223.402 24.8389 223.402 25.5436V33.1818ZM221.338 28.01L219.564 28.01C218.993 28.01 218.498 28.0582 218.079 28.1547C217.659 28.2512 217.311 28.3938 217.035 28.5826C216.758 28.7713 216.554 28.9978 216.424 29.2621C216.294 29.5263 216.229 29.8304 216.229 30.1744C216.229 30.7616 216.416 31.2293 216.789 31.5775C217.162 31.9256 217.685 32.0997 218.356 32.0997C218.901 32.0997 219.406 31.9612 219.872 31.6844C220.338 31.4076 220.826 30.9839 221.338 30.4135V28.01Z" fill="#003555"/>
<path d="M235.142 22.4606C235.142 22.6284 235.134 22.771 235.117 22.8884C235.1 23.0059 235.073 23.1023 235.035 23.1778C234.998 23.2533 234.954 23.31 234.903 23.3477C234.853 23.3855 234.79 23.4043 234.714 23.4043H231.317V33.1692C231.317 33.2363 231.3 33.2929 231.267 33.3391C231.233 33.3852 231.179 33.425 231.103 33.4586C231.027 33.4922 230.923 33.5173 230.788 33.5341C230.654 33.5509 230.482 33.5593 230.272 33.5593C230.071 33.5593 229.903 33.5509 229.769 33.5341C229.635 33.5173 229.528 33.4922 229.448 33.4586C229.369 33.425 229.314 33.3852 229.285 33.3391C229.255 33.2929 229.241 33.2363 229.241 33.1692V23.4043H225.843C225.776 23.4043 225.715 23.3855 225.661 23.3477C225.606 23.31 225.562 23.2533 225.529 23.1778C225.495 23.1023 225.468 23.0038 225.447 22.8821C225.426 22.7605 225.415 22.6158 225.415 22.448C225.415 22.297 225.426 22.1628 225.447 22.0453C225.468 21.9279 225.497 21.8293 225.535 21.7496C225.573 21.6699 225.617 21.6112 225.667 21.5734C225.717 21.5357 225.776 21.5168 225.843 21.5168H234.714C234.782 21.5168 234.842 21.5357 234.897 21.5734C234.951 21.6112 234.995 21.6699 235.029 21.7496C235.063 21.8293 235.09 21.93 235.111 22.0516C235.132 22.1733 235.142 22.3096 235.142 22.4606Z" fill="#003555"/>
<path d="M242.353 33.4838L240.843 37.649C240.792 37.7832 240.664 37.886 240.459 37.9573C240.253 38.0286 239.941 38.0643 239.521 38.0643C239.303 38.0643 239.127 38.0538 238.993 38.0328C238.859 38.0118 238.756 37.9762 238.685 37.9259C238.613 37.8755 238.573 37.8084 238.565 37.7245C238.557 37.6406 238.578 37.54 238.628 37.4225L240.188 33.4839C240.113 33.4503 240.042 33.3958 239.974 33.3203C239.907 33.2448 239.861 33.1651 239.836 33.0812L235.797 22.2593C235.73 22.0832 235.696 21.9447 235.696 21.8441C235.696 21.7434 235.73 21.6637 235.797 21.605C235.864 21.5463 235.973 21.5064 236.124 21.4854C236.275 21.4644 236.476 21.454 236.728 21.454C236.98 21.454 237.177 21.4603 237.319 21.4728C237.462 21.4854 237.575 21.5085 237.659 21.5421C237.743 21.5756 237.804 21.6238 237.842 21.6868C237.879 21.7497 237.919 21.8357 237.961 21.9447L241.195 31.0301H241.233L244.354 21.8944C244.404 21.735 244.465 21.6322 244.536 21.5861C244.607 21.5399 244.714 21.5064 244.857 21.4854C244.999 21.4644 245.205 21.4539 245.473 21.4539C245.708 21.4539 245.901 21.4644 246.052 21.4854C246.203 21.5064 246.314 21.5462 246.386 21.605C246.457 21.6637 246.493 21.7434 246.493 21.844C246.493 21.9447 246.468 22.0705 246.417 22.2216L242.353 33.4838Z" fill="#003555"/>
<path d="M257 31.4453C257 31.5879 256.996 31.7117 256.987 31.8166C256.979 31.9214 256.964 32.0095 256.943 32.0808C256.922 32.1521 256.897 32.215 256.868 32.2696C256.838 32.3241 256.771 32.4038 256.667 32.5086C256.562 32.6135 256.383 32.7435 256.132 32.8987C255.88 33.0539 255.597 33.1923 255.282 33.314C254.968 33.4356 254.626 33.5342 254.257 33.6097C253.888 33.6852 253.506 33.7229 253.112 33.7229C252.298 33.7229 251.576 33.5887 250.947 33.3203C250.318 33.0518 249.792 32.6596 249.368 32.1437C248.944 31.6278 248.621 30.9944 248.399 30.2436C248.177 29.4928 248.066 28.6266 248.066 27.6451C248.066 26.5293 248.202 25.5709 248.475 24.7697C248.747 23.9686 249.121 23.3121 249.595 22.8004C250.069 22.2887 250.626 21.9091 251.268 21.6616C251.91 21.4141 252.604 21.2904 253.351 21.2904C253.711 21.2904 254.062 21.3239 254.401 21.391C254.741 21.4581 255.054 21.5462 255.339 21.6553C255.624 21.7643 255.878 21.8902 256.1 22.0328C256.323 22.1754 256.484 22.297 256.585 22.3977C256.685 22.4984 256.755 22.5781 256.792 22.6368C256.83 22.6955 256.862 22.7647 256.887 22.8444C256.912 22.9241 256.929 23.0143 256.937 23.115C256.945 23.2156 256.95 23.3415 256.95 23.4925C256.95 23.8197 256.912 24.0483 256.836 24.1783C256.761 24.3083 256.669 24.3733 256.56 24.3733C256.434 24.3733 256.289 24.3041 256.125 24.1657C255.962 24.0273 255.754 23.8742 255.503 23.7064C255.251 23.5386 254.947 23.3855 254.59 23.2471C254.234 23.1087 253.812 23.0395 253.326 23.0395C252.327 23.0395 251.562 23.4233 251.029 24.1909C250.496 24.9585 250.23 26.0721 250.23 27.5318C250.23 28.2616 250.299 28.9013 250.438 29.4508C250.576 30.0003 250.78 30.4596 251.048 30.8287C251.316 31.1978 251.646 31.4725 252.036 31.6529C252.426 31.8333 252.873 31.9234 253.376 31.9234C253.854 31.9234 254.274 31.8479 254.634 31.6969C254.995 31.5459 255.308 31.3803 255.572 31.1999C255.836 31.0195 256.058 30.8559 256.239 30.7091C256.419 30.5623 256.56 30.4889 256.66 30.4889C256.719 30.4889 256.769 30.5057 256.811 30.5393C256.853 30.5728 256.889 30.6294 256.918 30.7091C256.948 30.7888 256.969 30.8895 256.981 31.0111C256.994 31.1328 257 31.2775 257 31.4453Z" fill="#003555"/>
</svg>
