<svg width="40" height="40" viewBox="0 0 40 40" fill="none" xmlns="http://www.w3.org/2000/svg">
<circle cx="20" cy="20" r="20" fill="#003555"/>
<path fill-rule="evenodd" clip-rule="evenodd" d="M12.8063 11.1906C13.0121 10.985 13.2593 10.8256 13.5314 10.7228C13.8035 10.62 14.0943 10.5763 14.3847 10.5944C14.675 10.6125 14.9581 10.6922 15.2153 10.828C15.4725 10.9638 15.6979 11.1528 15.8766 11.3823L17.9882 14.0951C18.3752 14.5927 18.5117 15.2409 18.3587 15.8526L17.7153 18.4289C17.682 18.5624 17.6838 18.7022 17.7205 18.8347C17.7572 18.9672 17.8275 19.088 17.9247 19.1854L20.815 22.0758C20.9124 22.1731 21.0334 22.2436 21.1662 22.2803C21.299 22.317 21.439 22.3187 21.5726 22.2852L24.1477 21.6417C24.4495 21.5662 24.7646 21.5603 25.0691 21.6245C25.3736 21.6887 25.6594 21.8213 25.9052 22.0123L28.6179 24.1227C29.5931 24.8815 29.6825 26.3226 28.8096 27.1943L27.5932 28.4107C26.7227 29.2812 25.4217 29.6635 24.2088 29.2365C21.1046 28.1443 18.2861 26.3671 15.9625 24.0368C13.6324 21.7135 11.8553 18.8953 10.7629 15.7915C10.3371 14.5798 10.7194 13.2775 11.5899 12.407L12.8063 11.1906ZM29.239 10.7612C29.2938 10.8158 29.3372 10.8807 29.3669 10.9522C29.3965 11.0237 29.4118 11.1003 29.4118 11.1776C29.4118 11.255 29.3965 11.3316 29.3669 11.4031C29.3372 11.4745 29.2938 11.5394 29.239 11.5941L24.3606 16.4714H27.6462C27.8022 16.4714 27.9518 16.5334 28.0621 16.6437C28.1724 16.754 28.2344 16.9036 28.2344 17.0596C28.2344 17.2156 28.1724 17.3652 28.0621 17.4755C27.9518 17.5858 27.8022 17.6478 27.6462 17.6478H22.9407C22.7847 17.6478 22.6351 17.5858 22.5248 17.4755C22.4145 17.3652 22.3525 17.2156 22.3525 17.0596V12.354C22.3525 12.198 22.4145 12.0484 22.5248 11.9381C22.6351 11.8278 22.7847 11.7658 22.9407 11.7658C23.0967 11.7658 23.2463 11.8278 23.3566 11.9381C23.4669 12.0484 23.5289 12.198 23.5289 12.354V15.6397L28.4061 10.7612C28.4608 10.7064 28.5257 10.6629 28.5971 10.6333C28.6686 10.6036 28.7452 10.5884 28.8225 10.5884C28.8999 10.5884 28.9765 10.6036 29.048 10.6333C29.1194 10.6629 29.1843 10.7064 29.239 10.7612Z" fill="white"/>
</svg>
