<svg width="37" height="36" viewBox="0 0 37 36" fill="none" xmlns="http://www.w3.org/2000/svg">
<path fill-rule="evenodd" clip-rule="evenodd" d="M18.5 36C28.4411 36 36.5 27.9411 36.5 18C36.5 8.05887 28.4411 0 18.5 0C8.55887 0 0.5 8.05887 0.5 18C0.5 27.9411 8.55887 36 18.5 36ZM13.4617 19.3126L8.85328 17.6532C8.38522 17.484 8.38115 16.8464 8.84788 16.6728L27.7609 9.6337C28.1618 9.4841 28.5756 9.82299 28.4882 10.2292L25.0942 25.9803C25.0142 26.3521 24.5622 26.5208 24.2432 26.2971L19.61 23.0518C19.3286 22.8547 18.9451 22.8652 18.6758 23.0769L16.107 25.0973C15.8088 25.3325 15.3596 25.2015 15.2454 24.847L13.4617 19.3126ZM23.9645 13.0775L14.958 18.4293C14.6128 18.6348 14.4502 19.037 14.5618 19.4135L15.5356 22.7147C15.6047 22.9486 15.9566 22.9246 15.9902 22.6829L16.2434 20.8726C16.2911 20.5318 16.4596 20.2178 16.7209 19.9831L24.1539 13.3172C24.2929 13.1928 24.1264 12.9816 23.9645 13.0775Z" fill="white"/>
</svg>
