<svg width="40" height="40" viewBox="0 0 40 40" fill="none" xmlns="http://www.w3.org/2000/svg">
<path fill-rule="evenodd" clip-rule="evenodd" d="M20 40C31.0457 40 40 31.0457 40 20C40 8.9543 31.0457 0 20 0C8.9543 0 0 8.9543 0 20C0 31.0457 8.9543 40 20 40ZM14.4019 21.4585L9.28147 19.6147C8.76139 19.4266 8.75687 18.7183 9.27547 18.5253L30.2899 10.7041C30.7354 10.5379 31.1951 10.9144 31.0981 11.3658L27.3269 28.867C27.238 29.2802 26.7359 29.4675 26.3814 29.219L21.2334 25.6131C20.9207 25.3941 20.4946 25.4058 20.1954 25.641L17.3412 27.8859C17.0098 28.1472 16.5107 28.0017 16.3838 27.6078L14.4019 21.4585ZM26.0717 14.5306L16.0644 20.477C15.6809 20.7054 15.5003 21.1522 15.6242 21.5706L16.7062 25.2385C16.783 25.4984 17.1741 25.4718 17.2113 25.2032L17.4927 23.1918C17.5457 22.8131 17.733 22.4642 18.0233 22.2035L26.2822 14.7968C26.4366 14.6586 26.2516 14.424 26.0717 14.5306Z" fill="#0084C6"/>
</svg>
