<svg width="36" height="36" viewBox="0 0 36 36" fill="none" xmlns="http://www.w3.org/2000/svg">
<path fill-rule="evenodd" clip-rule="evenodd" d="M18 36C27.9411 36 36 27.9411 36 18C36 8.05887 27.9411 0 18 0C8.05887 0 0 8.05887 0 18C0 27.9411 8.05887 36 18 36ZM25.7448 20.4562C25.5666 20.2535 25.3885 20.0508 25.2129 19.8448C24.6147 19.1437 24.5765 18.7368 25.058 17.9296C25.337 17.4591 25.6276 16.9986 25.9181 16.5382C26.1734 16.1337 26.4287 15.7293 26.6759 15.3182C26.6946 15.2872 26.7133 15.2561 26.732 15.225C27.2082 14.433 27.6858 13.6387 27.9358 12.6928C28.1008 12.0661 27.9544 11.7901 27.4204 11.6807C27.3294 11.662 27.2343 11.6604 27.1403 11.6604L23.9711 11.657C23.5806 11.6479 23.3645 11.8529 23.2267 12.2695C23.0408 12.8309 22.849 13.3927 22.6259 13.9338C22.1232 15.1642 21.5606 16.3525 20.7721 17.3579C20.7609 17.3722 20.7495 17.3868 20.7381 17.4014C20.5723 17.6142 20.3868 17.8522 20.1145 17.7452C19.7508 17.5846 19.6443 16.8646 19.6499 16.6219L19.6471 12.2268C19.5761 11.6 19.461 11.3202 18.9426 11.1973H15.6497C15.2106 11.1973 14.9904 11.4023 14.7562 11.7317C14.6213 11.9227 14.5799 12.0473 14.8584 12.1107C15.4041 12.235 15.7122 12.6605 15.7932 13.3176C15.9253 14.3707 15.9154 15.4256 15.8401 16.4823C15.8174 16.7894 15.7732 17.0983 15.6723 17.3851C15.5134 17.8374 15.2561 17.9295 14.9182 17.6515C14.6128 17.4004 14.3983 17.0437 14.188 16.6869C13.3981 15.347 12.7689 13.9014 12.2546 12.382C12.1054 11.9434 11.8497 11.6772 11.4634 11.6704C10.5117 11.6514 9.56134 11.6498 8.61082 11.672C8.03841 11.6838 7.86795 12.0184 8.10103 12.6418C9.13652 15.4087 10.2886 18.1002 11.7931 20.5496C12.5658 21.8075 13.4536 22.9187 14.5984 23.7057C15.8969 24.5985 17.2948 24.8663 18.7676 24.7828C19.4568 24.7451 19.6642 24.5283 19.6954 23.7039C19.7181 23.1389 19.7706 22.5775 20.0021 22.0705C20.2294 21.572 20.5747 21.477 20.9724 21.7873C21.1713 21.9424 21.3377 22.1387 21.4967 22.3473C21.6222 22.5124 21.7461 22.679 21.8701 22.8456C22.1294 23.1942 22.3887 23.5428 22.6616 23.8769C23.1657 24.4943 23.7652 24.8578 24.5167 24.7829L27.4303 24.7845C27.899 24.747 28.1434 24.0558 27.8736 23.4276C27.6832 22.9858 27.4344 22.5929 27.1715 22.2121C26.734 21.5821 26.2396 21.0194 25.7448 20.4562Z" fill="white"/>
</svg>
