<svg width="40" height="40" viewBox="0 0 40 40" fill="none" xmlns="http://www.w3.org/2000/svg">
<path fill-rule="evenodd" clip-rule="evenodd" d="M20 40C31.0457 40 40 31.0457 40 20C40 8.9543 31.0457 0 20 0C8.9543 0 0 8.9543 0 20C0 31.0457 8.9543 40 20 40ZM28.6053 22.7292C28.4074 22.5039 28.2094 22.2786 28.0143 22.0497C27.3497 21.2708 27.3072 20.8187 27.8423 19.9218C28.1522 19.399 28.4752 18.8873 28.798 18.3758C29.0817 17.9263 29.3652 17.4769 29.6399 17.0203C29.6607 16.9857 29.6814 16.9512 29.7022 16.9167C30.2313 16.0367 30.762 15.1542 31.0399 14.1031C31.2231 13.4068 31.0605 13.1001 30.4671 12.9786C30.366 12.9578 30.2604 12.956 30.156 12.956L26.6346 12.9522C26.2007 12.9421 25.9606 13.1699 25.8075 13.6327C25.601 14.2565 25.3879 14.8808 25.14 15.482C24.5814 16.8491 23.9562 18.1694 23.0802 19.2866C23.0677 19.3025 23.0551 19.3186 23.0424 19.3349C22.8582 19.5713 22.6521 19.8358 22.3495 19.7169C21.9454 19.5385 21.827 18.7384 21.8333 18.4688L21.8301 13.5854C21.7513 12.8889 21.6234 12.578 21.0474 12.4414H17.3886C16.9008 12.4414 16.656 12.6692 16.3958 13.0353C16.246 13.2475 16.1999 13.3859 16.5093 13.4563C17.1157 13.5945 17.458 14.0672 17.5481 14.7974C17.6948 15.9674 17.6838 17.1395 17.6001 18.3136C17.5749 18.6549 17.5258 18.9981 17.4137 19.3168C17.2371 19.8193 16.9513 19.9217 16.5758 19.6128C16.2365 19.3338 15.9982 18.9374 15.7645 18.541C14.8868 17.0522 14.1877 15.446 13.6163 13.7578C13.4505 13.2705 13.1664 12.9746 12.7371 12.9671C11.6797 12.946 10.6238 12.9442 9.56762 12.9689C8.93161 12.982 8.74221 13.3538 9.00119 14.0465C10.1517 17.1208 11.4319 20.1114 13.1035 22.8329C13.9621 24.2306 14.9485 25.4652 16.2205 26.3397C17.6633 27.3317 19.2164 27.6292 20.8529 27.5365C21.6187 27.4945 21.8491 27.2537 21.8838 26.3377C21.9091 25.7099 21.9674 25.0861 22.2246 24.5228C22.4772 23.9689 22.8608 23.8634 23.3027 24.2081C23.5237 24.3805 23.7086 24.5986 23.8853 24.8303C24.0247 25.0137 24.1624 25.1989 24.3001 25.384C24.5882 25.7714 24.8763 26.1587 25.1796 26.5299C25.7397 27.2159 26.4058 27.6198 27.2408 27.5366L30.4782 27.5383C30.999 27.4966 31.2704 26.7286 30.9707 26.0307C30.7592 25.5398 30.4827 25.1032 30.1906 24.6801C29.7045 23.9801 29.1551 23.3549 28.6053 22.7292Z" fill="#0084C6"/>
</svg>
