<svg width="35" height="33" viewBox="0 0 35 33" fill="none" xmlns="http://www.w3.org/2000/svg">
<path d="M3.09377 16.5001C3.0934 14.1466 3.71259 11.8345 4.88908 9.79624C6.06558 7.75795 7.75792 6.06527 9.79599 4.88838C11.8341 3.71149 14.146 3.09185 16.4995 3.09176C18.853 3.09167 21.165 3.71112 23.2031 4.88785C23.4829 5.04692 23.8143 5.08887 24.1248 5.00455C24.4354 4.92022 24.7001 4.71648 24.861 4.43776C25.0219 4.15905 25.066 3.828 24.9838 3.51686C24.9015 3.20572 24.6995 2.93974 24.4219 2.77698C21.4015 1.03315 17.8901 0.334656 14.4323 0.789832C10.9744 1.24501 7.76339 2.82841 5.29716 5.29449C2.83093 7.76056 1.24732 10.9715 0.791917 14.4293C0.336519 17.8871 1.03479 21.3985 2.77842 24.4191C4.52206 27.4396 7.21363 29.8004 10.4357 31.1353C13.6578 32.4702 17.2303 32.7047 20.5992 31.8024C23.9681 30.9 26.9452 28.9113 29.0686 26.1445C31.1921 23.3778 32.3433 19.9878 32.3438 16.5001C32.3438 16.1769 32.2154 15.8669 31.9868 15.6383C31.7583 15.4098 31.4483 15.2814 31.125 15.2814C30.8018 15.2814 30.4918 15.4098 30.2632 15.6383C30.0347 15.8669 29.9063 16.1769 29.9063 16.5001C29.9063 20.0557 28.4938 23.4656 25.9797 25.9798C23.4655 28.4939 20.0556 29.9064 16.5 29.9064C12.9445 29.9064 9.53453 28.4939 7.02037 25.9798C4.50621 23.4656 3.09377 20.0557 3.09377 16.5001Z" fill="white"/>
<path d="M34.4254 5.17548C34.5387 5.06216 34.6286 4.92764 34.6899 4.77959C34.7513 4.63154 34.7828 4.47285 34.7828 4.3126C34.7828 4.15235 34.7513 3.99367 34.6899 3.84562C34.6286 3.69757 34.5387 3.56304 34.4254 3.44973C34.3121 3.33641 34.1776 3.24653 34.0295 3.1852C33.8815 3.12388 33.7228 3.09231 33.5625 3.09231C33.4023 3.09231 33.2436 3.12388 33.0955 3.1852C32.9475 3.24653 32.813 3.33641 32.6996 3.44973L16.5 19.6518L10.0504 13.1997C9.93708 13.0864 9.80256 12.9965 9.65451 12.9352C9.50646 12.8739 9.34777 12.8423 9.18752 12.8423C9.02727 12.8423 8.86859 12.8739 8.72054 12.9352C8.57248 12.9965 8.43796 13.0864 8.32465 13.1997C8.21133 13.313 8.12145 13.4476 8.06012 13.5956C7.9988 13.7437 7.96723 13.9024 7.96723 14.0626C7.96723 14.2229 7.9988 14.3815 8.06012 14.5296C8.12145 14.6776 8.21133 14.8122 8.32465 14.9255L15.6371 22.238C15.7504 22.3515 15.8848 22.4415 16.0329 22.503C16.181 22.5644 16.3397 22.596 16.5 22.596C16.6603 22.596 16.8191 22.5644 16.9671 22.503C17.1152 22.4415 17.2497 22.3515 17.3629 22.238L34.4254 5.17548Z" fill="white"/>
</svg>
