<svg width="53" height="60" viewBox="0 0 53 60" fill="none" xmlns="http://www.w3.org/2000/svg">
<path d="M13.3374 15.8953L15.8958 17.372C15.8962 17.2437 15.922 9.35853 15.9211 9.62691L13.3625 8.15006L13.3374 15.8953Z" fill="#185F8D"/>
<path d="M6.89517 44.0191L15.8025 49.1988L15.8116 47.3887L8.47221 43.1228L6.89517 44.0191Z" fill="#185F8D"/>
<path d="M0.106312 22.1213L0 47.2214L21.9774 60C21.9877 57.572 22.0723 37.639 22.084 34.8937C-2.96085 20.3388 0.459429 22.3265 0.106312 22.1213ZM17.1169 50.3457C17.1142 50.8554 16.5601 51.167 16.1253 50.9127C15.9772 50.8265 4.6362 44.232 5.23959 44.5829C5.04732 44.4714 4.92969 44.2862 4.91977 44.0398C4.91474 43.9148 4.83205 31.715 4.95738 31.7649C4.95802 31.529 5.08431 31.3113 5.2892 31.1946C5.49474 31.0767 5.74603 31.0774 5.94899 31.1966L16.8489 37.5251C17.0538 37.6436 17.1794 37.8627 17.1782 38.0992L17.1169 50.3457Z" fill="#185F8D"/>
<path d="M7.84586 33.8244L6.27372 32.9118L6.23659 42.876L7.81751 41.9775L7.84586 33.8244Z" fill="#185F8D"/>
<path d="M48.733 14.8779L29.8345 3.8949L19.3895 1.06892L38.2879 12.0513L48.733 14.8779Z" fill="#185F8D"/>
<path d="M24.9907 32.4567C31.0824 28.9397 45.3191 20.7203 51.6865 17.0441L38.3066 13.4231C35.1515 17.933 28.1574 27.9303 24.9907 32.4567Z" fill="#185F8D"/>
<path d="M16.5519 5.53791L14.0231 7.00752L16.5812 8.48413L19.1098 7.01469L16.5519 5.53791Z" fill="#185F8D"/>
<path d="M33.482 39.6877L33.488 41.8323L43.3996 47.592L43.3613 33.9839C43.1743 34.0919 32.9425 39.9992 33.482 39.6877Z" fill="#185F8D"/>
<path d="M23.4039 34.8968C23.394 37.2335 23.3064 57.8457 23.2972 59.9989L32.2052 54.8558L32.1643 40.4485L31.2874 40.9548C30.9728 41.1365 30.5685 41.0291 30.386 40.7132C30.2037 40.3974 30.3119 39.9941 30.6276 39.8117C36.0359 36.6892 40.3836 34.179 45.5513 31.1953C45.8645 31.0123 46.2698 31.1205 46.4527 31.4369C46.6351 31.7526 46.5268 32.156 46.2111 32.3383L44.6787 33.223L44.7195 47.6303L52.6201 43.0688L52.7265 17.9677L23.4039 34.8968Z" fill="#185F8D"/>
<path d="M37.0792 12.8754C24.9204 5.80946 27.5844 7.35759 14.9237 0L0.401007 20.7594L22.5529 33.6395C24.5752 30.7488 31.7746 20.4578 37.0792 12.8754ZM21.0859 7.01598L21.0557 13.8245C21.055 13.9759 21.0022 14.1222 20.9062 14.2394L17.0622 18.9307C16.9008 19.1276 16.6032 19.2466 16.2867 19.1014C16.0321 18.9879 13.4485 17.4783 12.3464 16.847C12.1415 16.7284 12.0159 16.51 12.0165 16.2735L12.0468 7.0076C12.0478 6.66739 12.2795 6.56436 12.3748 6.43931L12.3763 6.43843C13.1824 5.97001 16.4117 4.09332 16.2188 4.20546C16.4237 4.08562 16.6756 4.08626 16.8805 4.20417L20.7561 6.44124C20.9595 6.55966 21.0853 6.77706 21.0859 7.01147C21.0859 7.01227 21.0854 7.01292 21.0854 7.01372C21.0854 7.01453 21.0859 7.01517 21.0859 7.01598Z" fill="#185F8D"/>
<path d="M17.2177 16.6585L19.7374 13.5842L19.7612 8.16222L17.2407 9.62699L17.2177 16.6585Z" fill="#185F8D"/>
</svg>
