<svg width="50" height="60" viewBox="0 0 50 60" fill="none" xmlns="http://www.w3.org/2000/svg">
<path d="M47.9283 7.0433C47.9079 7.03166 47.8813 7.01625 47.852 6.99947C47.884 7.01785 47.9191 7.03808 47.9493 7.05542C47.9424 7.05141 47.9348 7.04707 47.9283 7.0433Z" fill="#185F8D"/>
<path d="M19.4833 18.1146C20.7834 16.5594 21.381 15.983 22.4548 14.9497L16.2656 11.3536C15.316 12.2305 14.3963 13.1655 13.5333 14.1636L17.1539 16.2707C17.0062 16.1538 19.3506 18.0096 19.4833 18.1146Z" fill="#185F8D"/>
<path d="M32.4785 4.00699C32.7637 4.17269 26.8684 0.746534 26.4049 0.477191L17.0852 5.85867L23.1579 9.38791L32.4785 4.00699Z" fill="#185F8D"/>
<path d="M45.1804 12.7191C45.6665 13.4769 46.0827 14.3395 46.4231 15.2964L49.095 13.4782L45.8943 11.6193L45.1804 12.7191Z" fill="#185F8D"/>
<path d="M34.4484 4.00956C34.0149 9.89143 34.1654 7.86281 34.133 8.30171C34.9183 8.15327 36.5878 8.05043 37.0065 8.06664C36.864 8.34659 39.1969 3.76374 39.2667 3.62654C39.662 3.85622 33.1577 0.077391 33.0245 0L31.9253 2.16422C31.7934 2.08057 34.0076 3.36948 34.1401 3.45209C34.2719 3.53421 34.449 3.76181 34.4484 4.00956Z" fill="#185F8D"/>
<path d="M6.06894 27.1397C5.83147 27.0015 5.69018 26.9193 5.61463 26.8753C5.71538 26.934 5.903 27.0431 6.06894 27.1397C6.57254 27.4325 7.49449 27.9687 9.08791 28.8954C14.008 20.3804 15.4485 17.8876 15.8109 17.2604C15.8121 17.2582 15.8147 17.2537 15.8183 17.2475C15.8258 17.2344 15.8369 17.2153 15.8493 17.1936C15.8461 17.1993 15.8427 17.2054 15.8399 17.2102C15.8629 17.1702 15.8803 17.1403 15.8925 17.119C15.8978 17.11 15.9027 17.1008 15.9065 17.0947C15.9104 17.0882 15.9138 17.0822 15.9186 17.0739C14.1164 16.0252 15.5099 16.8361 9.67171 13.4391L2.84461 25.268C6.88965 27.6181 6.61309 27.4565 6.06894 27.1397Z" fill="#185F8D"/>
<path d="M22.7839 13.6206L22.524 10.5433L16.5332 7.06233L16.7922 10.1392L22.7839 13.6206Z" fill="#185F8D"/>
<path d="M6.06653 38.9882L9.09493e-05 35.4624C-0.00191605 34.7476 0.0299559 46.029 0.0302765 46.161C-0.365108 45.9315 5.96369 49.605 6.09688 49.6823L6.06653 38.9882Z" fill="#185F8D"/>
<path d="M10.6647 48.961C10.5452 49.0431 7.21238 51.3288 7.08666 51.4011C6.86766 51.5271 6.58322 51.4825 6.45148 51.4133C3.39895 49.6397 4.4516 50.2516 4.22384 50.1193L2.95379 52.0787L9.19581 55.7061L11.9055 51.5427C11.4215 50.7865 11.0065 49.9221 10.6647 48.961Z" fill="#185F8D"/>
<path d="M19.5122 57.3068L22.7145 59.1614L22.9444 55.9694C21.9258 56.1618 20.9661 56.2456 20.0737 56.2057L19.5122 57.3068Z" fill="#185F8D"/>
<path d="M43.8503 33.474C43.779 33.3141 43.7738 33.1323 43.8368 32.9686C44.515 31.2082 45.0603 29.3777 45.4572 27.5281C45.5002 27.3277 45.6344 27.1588 45.8194 27.0714L49.705 25.2391L49.6748 14.6747L46.4379 16.8777C46.2638 16.9952 46.0448 17.0241 45.8464 16.9528C45.6486 16.8822 45.4964 16.7209 45.4366 16.5186C45.0461 15.1866 44.5137 14.0376 43.8548 13.1044C43.7 12.8848 43.6942 12.5932 43.8406 12.3671C43.7369 12.527 46.6183 8.08872 46.7494 7.88682L40.415 4.28621C40.576 3.9707 38.0476 8.92493 37.9801 9.05699C37.8587 9.29591 37.6083 9.44491 37.3379 9.41408C35.2469 9.23819 33.7602 9.78916 33.4099 9.78916C33.0962 9.78916 32.7685 9.53876 32.7654 9.13743C32.7633 8.90085 32.6752 10.1895 33.0432 5.20005L23.8449 10.5104L24.2058 14.7711C24.2178 14.9136 24.1398 15.1795 23.9926 15.3138C21.8136 17.2895 20.7624 18.6898 20.0928 19.455C19.91 19.6748 19.4779 19.7895 19.1706 19.5468C19.3079 19.6561 17.1498 17.9386 17.0172 17.8332C16.9802 17.8971 16.9561 17.9387 16.9389 17.9684C16.9443 17.959 16.9498 17.9496 16.9558 17.9393C16.9441 17.9594 16.9319 17.9806 16.9162 18.0078C16.9176 18.0054 16.9197 18.0016 16.9213 17.9988C16.9066 18.0241 16.9066 18.0242 16.9162 18.0078C16.5661 18.6126 15.1537 21.0524 10.2863 29.4612C10.1262 29.4005 12.7394 30.3915 12.8759 30.4432C13.039 30.5055 13.1713 30.6308 13.2426 30.7907C13.3139 30.9506 13.3178 31.133 13.2548 31.2961C12.9641 32.0442 12.0564 34.7445 11.6299 36.7257C11.5907 36.9092 11.3961 37.1277 11.2645 37.1901C11.5136 37.0724 7.51416 38.9626 7.3821 39.025L7.41228 49.587C7.20171 49.7309 10.5158 47.4671 10.6479 47.3768C10.7365 47.3171 10.8363 47.2812 10.9388 47.2686C11.0403 47.2555 11.145 47.2659 11.2446 47.301C11.4424 47.371 11.5946 47.5322 11.6543 47.7339C12.0519 49.0807 12.583 50.2335 13.2323 51.1596C13.2555 51.1927 13.2518 51.234 13.2682 51.2699C13.3619 51.4725 13.3709 51.7058 13.2458 51.8976L10.3377 56.3689L16.6697 59.986C16.5147 60.2906 18.9444 55.5149 19.0922 55.2244C19.145 55.1205 19.2316 55.0452 19.3256 54.9841C19.4443 54.9045 19.5815 54.8547 19.737 54.8667C21.0078 54.9712 22.3577 54.7852 23.5064 54.4993C23.71 54.4466 23.9277 54.4987 24.0883 54.6342C24.2495 54.7703 24.3362 54.9746 24.3208 55.1852L24.0414 59.0663L33.241 53.7549L32.8717 49.5007C32.8537 49.2958 32.9327 49.0941 33.0849 48.9561C34.4837 47.6889 35.7952 46.292 36.9833 44.8052C37.0925 44.6684 37.2512 44.5811 37.4252 44.5618C37.5967 44.5425 37.7733 44.5939 37.9095 44.7031L40.0745 46.4436L46.7995 34.7945L44.2183 33.8202C44.0545 33.7585 43.9222 33.6339 43.8503 33.474ZM29.0534 45.6009C22.2663 49.5206 16.663 46.2585 16.6367 38.5902C16.6236 31.1981 21.8585 22.1487 28.3299 18.4131C35.0118 14.5592 40.6019 17.7818 40.6151 25.5027C40.6414 32.8949 35.459 41.9048 29.0534 45.6009Z" fill="#185F8D"/>
<path d="M9.5708 36.5252L3.57019 33.0378L0.743815 34.368L6.75342 37.8644L9.5708 36.5252Z" fill="#185F8D"/>
<path d="M4.36064 31.976L10.5536 35.5751C10.9245 34.0349 11.5826 32.012 11.7911 31.4413C11.967 31.5091 9.13287 30.4161 8.99671 30.3636L5.40702 28.2776C4.9829 29.5167 4.64034 30.7542 4.36064 31.976Z" fill="#185F8D"/>
<path d="M30.6803 31.2762C30.0066 30.8896 29.1646 30.9519 28.3046 31.4477C27.8705 31.6975 27.4793 31.7631 27.2347 31.6198C26.9925 31.4805 26.8532 31.1182 26.8519 30.625C26.848 29.3174 27.8069 27.6572 28.9462 26.9995C29.3766 26.7503 29.7632 26.6886 30.0079 26.8287C30.2507 26.9687 30.3907 27.3315 30.3919 27.8254C30.3932 28.1883 30.6874 28.4812 31.0496 28.4812H31.0515C31.415 28.4799 31.7086 28.1851 31.7073 27.8216C31.7047 26.8319 31.3341 26.074 30.6643 25.6887C30.2535 25.453 29.7768 25.4043 29.2751 25.4989V23.8403C29.2751 23.4768 28.9809 23.1826 28.6174 23.1826C28.2539 23.1826 27.9597 23.4768 27.9597 23.8403V26.0871C26.5747 27.0709 25.5318 28.9785 25.5365 30.6288C25.5391 31.6173 25.909 32.3745 26.5783 32.7598C27.2501 33.1484 28.0985 33.0854 28.9623 32.5871C29.3926 32.3392 29.7799 32.2769 30.0239 32.4162C30.2667 32.5562 30.4067 32.9191 30.408 33.413C30.4119 34.7168 29.4555 36.3718 28.3201 37.0269C27.8853 37.2787 27.4948 37.3442 27.2488 37.1997C27.0079 37.061 26.8686 36.7013 26.8673 36.2126C26.866 35.8497 26.5719 35.5568 26.2096 35.5568H26.2077C25.8442 35.5581 25.5507 35.8529 25.552 36.2164C25.5545 37.201 25.9245 37.9556 26.593 38.3397C26.8846 38.508 27.209 38.5914 27.5539 38.5914C27.6848 38.5914 27.8236 38.5534 27.9597 38.5293V40.2067C27.9597 40.5702 28.2539 40.8644 28.6174 40.8644C28.9809 40.8644 29.2751 40.5702 29.2751 40.2067V37.9611C30.672 36.9866 31.7281 35.0674 31.7233 33.4091C31.7208 32.4194 31.3502 31.6616 30.6803 31.2762Z" fill="#185F8D"/>
</svg>
