<svg width="55" height="60" viewBox="0 0 55 60" fill="none" xmlns="http://www.w3.org/2000/svg">
<path d="M31.6846 49.028C28.9498 47.1492 26.3157 44.8112 23.8547 42.0777C23.733 41.9426 23.519 41.7543 23.3384 41.7321L21.5709 44.5749C21.5699 44.5765 21.5681 44.5772 21.5671 44.5787C21.3156 44.9853 20.7679 44.9578 20.5162 44.6577C15.1868 38.3838 10.9107 30.9768 8.15047 23.2387C8.00008 22.8149 8.30977 22.3768 8.75041 22.3675C8.53482 22.3722 11.9903 22.2967 12.1242 22.2937C12.1396 22.2558 12.1948 22.0536 12.0711 21.6758C11.2237 19.0487 10.6185 16.4581 10.2631 13.9427C10.1445 13.1042 10.0538 12.2741 9.99106 11.4538C9.94831 10.8899 9.5048 10.258 9.06917 10.0055C6.62004 8.72183 4.176 7.44193 1.72559 6.16514C0.516623 5.53073 -0.124081 6.21466 0.0200135 7.60004C2.04148 26.7588 14.3652 48.1058 29.9892 59.5111C31.1073 60.3256 32.0449 60.1491 32.1075 58.7838C32.2348 56.0312 32.3571 53.2824 32.4794 50.5272C32.5023 50.0337 32.1304 49.3344 31.6846 49.028Z" fill="#185F8D"/>
<path d="M11.2928 11.3553C11.5335 14.5333 12.2137 17.8706 13.3117 21.2722C13.3444 21.3703 13.3706 21.4671 13.3909 21.5626L22.3045 16.3873C22.3325 16.3427 22.3924 16.1344 22.2663 15.7517C21.1365 12.2482 20.4372 8.80964 20.1862 5.52906C20.1544 5.10107 19.8907 4.61194 19.5443 4.29032L10.5082 9.54142C10.9795 10.0962 11.2528 10.8293 11.2928 11.3553Z" fill="#185F8D"/>
<path d="M41.8798 43.1036C39.145 41.2248 36.5109 38.8868 34.0499 36.1533C33.9455 36.0374 33.8309 35.9412 33.7188 35.8762C33.599 35.8068 33.5226 35.7998 33.5009 35.803C34.0832 35.4642 24.7324 40.9057 24.6007 40.9823C24.6771 41.0508 24.7513 41.1247 24.824 41.2044C27.2175 43.8628 29.7726 46.1326 32.4221 47.9528C33.2424 48.5146 33.827 49.6476 33.7812 50.5876C33.6589 53.3415 33.5366 56.0916 33.4092 58.8442V58.8582L41.8123 53.9752C42.1027 53.8064 42.2772 53.4103 42.3027 52.8594C42.43 50.1068 42.5523 47.358 42.6733 44.6028C42.6975 44.1092 42.3256 43.4099 41.8798 43.1036Z" fill="#185F8D"/>
<path d="M12.7755 23.4327C12.6449 23.4807 12.3841 23.5985 12.1564 23.6027C12.3135 23.5994 9.82688 23.6521 9.69298 23.6549C12.2748 30.5707 16.231 37.4203 20.9349 43.1196C20.8528 43.2527 22.14 41.1641 22.2205 41.0336C22.2213 41.0321 22.2223 41.0317 22.2232 41.0302L22.2243 41.0285C22.225 41.0273 22.2263 41.0268 22.227 41.0256C22.3432 40.846 22.4646 40.7409 22.5662 40.6658C22.5889 40.6494 29.1171 36.835 29.1408 36.8212C24.9772 31.5032 21.6142 25.6008 19.2386 19.677L12.7755 23.4327Z" fill="#185F8D"/>
<path d="M9.37359 8.69188L18.2361 3.54156C16.1306 2.43848 14.0276 1.33795 11.9208 0.239961C11.4228 -0.0217982 10.9833 -0.0714751 10.6852 0.10112L2.28348 4.98474C2.29877 4.99238 2.31405 5.00066 2.33061 5.00894C4.67864 6.23295 7.02357 7.46134 9.37359 8.69188Z" fill="#185F8D"/>
<path d="M35.2677 1.61036L33.6538 2.54977C33.6813 2.55184 33.7104 2.55956 33.738 2.56195C34.7601 2.64992 36.1285 2.99527 37.4192 3.59075C40.8041 5.14801 43.7197 8.04002 45.8812 11.0932C48.9588 15.4394 50.9671 20.7622 50.9579 25.461C50.9487 27.52 50.5097 29.3344 49.9386 30.5508C49.9348 30.5588 49.9324 30.5679 49.9287 30.5758L51.5426 29.6358C53.5717 28.4518 54.6977 25.9215 54.713 22.5103C54.7388 10.9533 42.2791 -2.47684 35.2677 1.61036Z" fill="#185F8D"/>
<path d="M36.8169 4.75437C34.7062 3.79403 32.1986 3.40211 30.2088 4.55535C28.1735 5.73454 27.048 8.25484 27.0378 11.6561C27.0162 19.0338 32.2144 28.0476 38.6253 31.7479C44.8334 35.3323 49.6275 32.5147 49.6485 25.4599C49.6597 21.6305 48.2502 17.3624 45.9999 13.6215C43.8494 10.0479 40.6279 6.48614 36.8169 4.75437ZM32.5849 8.57169C32.5849 8.33692 32.7153 8.11513 32.9109 7.99778C33.1197 7.88036 33.3675 7.88036 33.5631 7.99778L37.124 10.0586V8.98909C37.124 8.71515 37.3066 8.46733 37.5674 8.37601C37.8414 8.2847 38.1283 8.37601 38.2979 8.59773L43.9718 16.0716C44.1152 16.2542 44.1544 16.489 44.0631 16.7107C43.9718 16.9194 43.7891 17.0759 43.5544 17.102L37.8544 17.989C37.8153 18.002 37.7892 18.002 37.7501 18.002C37.5935 18.002 37.4501 17.9499 37.3327 17.8455C37.1892 17.7151 37.0979 17.5325 37.0979 17.3499L37.1109 15.5368L32.898 13.1108C32.7023 12.9933 32.5719 12.7847 32.5719 12.5499L32.5849 8.57169ZM44.1022 28.5671C44.1022 28.9324 43.8022 29.2193 43.45 29.2193C43.3327 29.2193 43.2283 29.1933 43.1239 29.141L39.5631 27.0802V28.1368C39.5631 28.4237 39.3805 28.6715 39.1196 28.7628C38.8457 28.8541 38.5587 28.7628 38.3892 28.5411L32.7023 21.0672C32.5719 20.8846 32.5327 20.6499 32.624 20.4281C32.7023 20.2194 32.898 20.0629 33.1197 20.0237L38.8327 19.1498C39.0283 19.1107 39.2109 19.176 39.3544 19.2933C39.4979 19.4238 39.5892 19.5933 39.5892 19.789L39.5762 21.602L43.7891 24.0281C43.9848 24.1455 44.1152 24.3541 44.1152 24.5889L44.1022 28.5671Z" fill="#185F8D"/>
</svg>
